%TF.GenerationSoftware,KiCad,Pcbnew,(6.0.4)*%
%TF.CreationDate,2022-10-31T11:49:10-04:00*%
%TF.ProjectId,switcher board,73776974-6368-4657-9220-626f6172642e,rev?*%
%TF.SameCoordinates,Original*%
%TF.FileFunction,Soldermask,Top*%
%TF.FilePolarity,Negative*%
%FSLAX46Y46*%
G04 Gerber Fmt 4.6, Leading zero omitted, Abs format (unit mm)*
G04 Created by KiCad (PCBNEW (6.0.4)) date 2022-10-31 11:49:10*
%MOMM*%
%LPD*%
G01*
G04 APERTURE LIST*
G04 Aperture macros list*
%AMRoundRect*
0 Rectangle with rounded corners*
0 $1 Rounding radius*
0 $2 $3 $4 $5 $6 $7 $8 $9 X,Y pos of 4 corners*
0 Add a 4 corners polygon primitive as box body*
4,1,4,$2,$3,$4,$5,$6,$7,$8,$9,$2,$3,0*
0 Add four circle primitives for the rounded corners*
1,1,$1+$1,$2,$3*
1,1,$1+$1,$4,$5*
1,1,$1+$1,$6,$7*
1,1,$1+$1,$8,$9*
0 Add four rect primitives between the rounded corners*
20,1,$1+$1,$2,$3,$4,$5,0*
20,1,$1+$1,$4,$5,$6,$7,0*
20,1,$1+$1,$6,$7,$8,$9,0*
20,1,$1+$1,$8,$9,$2,$3,0*%
G04 Aperture macros list end*
%ADD10RoundRect,0.250000X-0.475000X0.337500X-0.475000X-0.337500X0.475000X-0.337500X0.475000X0.337500X0*%
%ADD11RoundRect,0.250000X0.475000X-0.337500X0.475000X0.337500X-0.475000X0.337500X-0.475000X-0.337500X0*%
%ADD12C,3.200000*%
%ADD13RoundRect,0.250000X-0.337500X-0.475000X0.337500X-0.475000X0.337500X0.475000X-0.337500X0.475000X0*%
%ADD14RoundRect,0.100000X-0.712500X-0.100000X0.712500X-0.100000X0.712500X0.100000X-0.712500X0.100000X0*%
%ADD15RoundRect,0.019000X-0.501000X0.171000X-0.501000X-0.171000X0.501000X-0.171000X0.501000X0.171000X0*%
%ADD16RoundRect,0.100000X1.650000X0.900000X-1.650000X0.900000X-1.650000X-0.900000X1.650000X-0.900000X0*%
%ADD17RoundRect,0.100000X2.900000X0.900000X-2.900000X0.900000X-2.900000X-0.900000X2.900000X-0.900000X0*%
%ADD18RoundRect,0.100000X-1.650000X-0.900000X1.650000X-0.900000X1.650000X0.900000X-1.650000X0.900000X0*%
%ADD19RoundRect,0.100000X-2.900000X-0.900000X2.900000X-0.900000X2.900000X0.900000X-2.900000X0.900000X0*%
G04 APERTURE END LIST*
D10*
%TO.C,C5*%
X167260000Y-95962500D03*
X167260000Y-98037500D03*
%TD*%
%TO.C,C4*%
X165000000Y-95962500D03*
X165000000Y-98037500D03*
%TD*%
D11*
%TO.C,C3*%
X153500000Y-95287500D03*
X153500000Y-93212500D03*
%TD*%
D10*
%TO.C,C2*%
X153500000Y-89212500D03*
X153500000Y-91287500D03*
%TD*%
D12*
%TO.C,H3*%
X179750000Y-90250000D03*
%TD*%
%TO.C,H2*%
X179750000Y-110750000D03*
%TD*%
%TO.C,H1*%
X154000000Y-100500000D03*
%TD*%
D13*
%TO.C,C1*%
X160537500Y-106500000D03*
X158462500Y-106500000D03*
%TD*%
D14*
%TO.C,U1*%
X151887500Y-105025000D03*
X151887500Y-105675000D03*
X151887500Y-106325000D03*
X151887500Y-106975000D03*
X156112500Y-106975000D03*
X156112500Y-106325000D03*
X156112500Y-105675000D03*
X156112500Y-105025000D03*
%TD*%
D15*
%TO.C,Q1*%
X163380000Y-101750000D03*
X163380000Y-102400000D03*
X163380000Y-103050000D03*
X163380000Y-103700000D03*
X167620000Y-103700000D03*
X167620000Y-103050000D03*
X167620000Y-102400000D03*
X167620000Y-101750000D03*
%TD*%
D16*
%TO.C,J3*%
X171750000Y-104500000D03*
D17*
X181000000Y-104500000D03*
X181000000Y-100500000D03*
D16*
X171750000Y-100500000D03*
X171750000Y-96500000D03*
D17*
X181000000Y-96500000D03*
%TD*%
D18*
%TO.C,J2*%
X145750000Y-104500000D03*
D19*
X136500000Y-104500000D03*
X136500000Y-108500000D03*
D18*
X145750000Y-108500000D03*
X145750000Y-112500000D03*
D19*
X136500000Y-112500000D03*
%TD*%
D18*
%TO.C,J1*%
X145750000Y-88500000D03*
D19*
X136500000Y-88500000D03*
X136500000Y-92500000D03*
D18*
X145750000Y-92500000D03*
X145750000Y-96500000D03*
D19*
X136500000Y-96500000D03*
%TD*%
M02*
