%TF.GenerationSoftware,KiCad,Pcbnew,(6.0.4)*%
%TF.CreationDate,2022-10-31T11:49:10-04:00*%
%TF.ProjectId,switcher board,73776974-6368-4657-9220-626f6172642e,rev?*%
%TF.SameCoordinates,Original*%
%TF.FileFunction,Copper,L1,Top*%
%TF.FilePolarity,Positive*%
%FSLAX46Y46*%
G04 Gerber Fmt 4.6, Leading zero omitted, Abs format (unit mm)*
G04 Created by KiCad (PCBNEW (6.0.4)) date 2022-10-31 11:49:10*
%MOMM*%
%LPD*%
G01*
G04 APERTURE LIST*
G04 Aperture macros list*
%AMRoundRect*
0 Rectangle with rounded corners*
0 $1 Rounding radius*
0 $2 $3 $4 $5 $6 $7 $8 $9 X,Y pos of 4 corners*
0 Add a 4 corners polygon primitive as box body*
4,1,4,$2,$3,$4,$5,$6,$7,$8,$9,$2,$3,0*
0 Add four circle primitives for the rounded corners*
1,1,$1+$1,$2,$3*
1,1,$1+$1,$4,$5*
1,1,$1+$1,$6,$7*
1,1,$1+$1,$8,$9*
0 Add four rect primitives between the rounded corners*
20,1,$1+$1,$2,$3,$4,$5,0*
20,1,$1+$1,$4,$5,$6,$7,0*
20,1,$1+$1,$6,$7,$8,$9,0*
20,1,$1+$1,$8,$9,$2,$3,0*%
G04 Aperture macros list end*
%TA.AperFunction,SMDPad,CuDef*%
%ADD10RoundRect,0.250000X-0.475000X0.337500X-0.475000X-0.337500X0.475000X-0.337500X0.475000X0.337500X0*%
%TD*%
%TA.AperFunction,SMDPad,CuDef*%
%ADD11RoundRect,0.250000X0.475000X-0.337500X0.475000X0.337500X-0.475000X0.337500X-0.475000X-0.337500X0*%
%TD*%
%TA.AperFunction,SMDPad,CuDef*%
%ADD12RoundRect,0.250000X-0.337500X-0.475000X0.337500X-0.475000X0.337500X0.475000X-0.337500X0.475000X0*%
%TD*%
%TA.AperFunction,SMDPad,CuDef*%
%ADD13RoundRect,0.100000X-0.712500X-0.100000X0.712500X-0.100000X0.712500X0.100000X-0.712500X0.100000X0*%
%TD*%
%TA.AperFunction,SMDPad,CuDef*%
%ADD14RoundRect,0.019000X-0.501000X0.171000X-0.501000X-0.171000X0.501000X-0.171000X0.501000X0.171000X0*%
%TD*%
%TA.AperFunction,SMDPad,CuDef*%
%ADD15RoundRect,0.100000X1.650000X0.900000X-1.650000X0.900000X-1.650000X-0.900000X1.650000X-0.900000X0*%
%TD*%
%TA.AperFunction,SMDPad,CuDef*%
%ADD16RoundRect,0.100000X2.900000X0.900000X-2.900000X0.900000X-2.900000X-0.900000X2.900000X-0.900000X0*%
%TD*%
%TA.AperFunction,SMDPad,CuDef*%
%ADD17RoundRect,0.100000X-1.650000X-0.900000X1.650000X-0.900000X1.650000X0.900000X-1.650000X0.900000X0*%
%TD*%
%TA.AperFunction,SMDPad,CuDef*%
%ADD18RoundRect,0.100000X-2.900000X-0.900000X2.900000X-0.900000X2.900000X0.900000X-2.900000X0.900000X0*%
%TD*%
%TA.AperFunction,ViaPad*%
%ADD19C,0.800000*%
%TD*%
%TA.AperFunction,Conductor*%
%ADD20C,1.000000*%
%TD*%
%TA.AperFunction,Conductor*%
%ADD21C,0.250000*%
%TD*%
G04 APERTURE END LIST*
D10*
%TO.P,C5,1*%
%TO.N,+24V*%
X167260000Y-95962500D03*
%TO.P,C5,2*%
%TO.N,GND*%
X167260000Y-98037500D03*
%TD*%
%TO.P,C4,1*%
%TO.N,+24V*%
X165000000Y-95962500D03*
%TO.P,C4,2*%
%TO.N,GND*%
X165000000Y-98037500D03*
%TD*%
D11*
%TO.P,C3,1*%
%TO.N,+12V*%
X153500000Y-95287500D03*
%TO.P,C3,2*%
%TO.N,GND*%
X153500000Y-93212500D03*
%TD*%
D10*
%TO.P,C2,1*%
%TO.N,+24V*%
X153500000Y-89212500D03*
%TO.P,C2,2*%
%TO.N,GND*%
X153500000Y-91287500D03*
%TD*%
D12*
%TO.P,C1,2*%
%TO.N,GND*%
X160537500Y-106500000D03*
%TO.P,C1,1*%
%TO.N,+12V*%
X158462500Y-106500000D03*
%TD*%
D13*
%TO.P,U1,1,EN_A*%
%TO.N,/EN*%
X151887500Y-105025000D03*
%TO.P,U1,2,IN_A*%
%TO.N,/CW*%
X151887500Y-105675000D03*
%TO.P,U1,3,GND*%
%TO.N,GND*%
X151887500Y-106325000D03*
%TO.P,U1,4,IN_B*%
%TO.N,/WW*%
X151887500Y-106975000D03*
%TO.P,U1,5,OUT_B*%
%TO.N,Net-(Q1-Pad4)*%
X156112500Y-106975000D03*
%TO.P,U1,6,Vdd*%
%TO.N,+12V*%
X156112500Y-106325000D03*
%TO.P,U1,7,OUT_A*%
%TO.N,Net-(Q1-Pad2)*%
X156112500Y-105675000D03*
%TO.P,U1,8,EN_B*%
%TO.N,/EN*%
X156112500Y-105025000D03*
%TD*%
D14*
%TO.P,Q1,1,S2*%
%TO.N,GND*%
X163380000Y-101750000D03*
%TO.P,Q1,2,G2*%
%TO.N,Net-(Q1-Pad2)*%
X163380000Y-102400000D03*
%TO.P,Q1,3,S2*%
%TO.N,GND*%
X163380000Y-103050000D03*
%TO.P,Q1,4,G2*%
%TO.N,Net-(Q1-Pad4)*%
X163380000Y-103700000D03*
%TO.P,Q1,5,D2*%
%TO.N,/WW_Gnd*%
X167620000Y-103700000D03*
%TO.P,Q1,6,D2*%
X167620000Y-103050000D03*
%TO.P,Q1,7,D2*%
%TO.N,/CW_Gnd*%
X167620000Y-102400000D03*
%TO.P,Q1,8,D2*%
X167620000Y-101750000D03*
%TD*%
D15*
%TO.P,J3,1,Pin_1*%
%TO.N,/WW_Gnd*%
X171750000Y-104500000D03*
D16*
X181000000Y-104500000D03*
%TO.P,J3,2,Pin_2*%
%TO.N,/CW_Gnd*%
X181000000Y-100500000D03*
D15*
X171750000Y-100500000D03*
%TO.P,J3,3,Pin_3*%
%TO.N,+24V*%
X171750000Y-96500000D03*
D16*
X181000000Y-96500000D03*
%TD*%
D17*
%TO.P,J2,1,Pin_1*%
%TO.N,/EN*%
X145750000Y-104500000D03*
D18*
X136500000Y-104500000D03*
%TO.P,J2,2,Pin_2*%
%TO.N,/CW*%
X136500000Y-108500000D03*
D17*
X145750000Y-108500000D03*
%TO.P,J2,3,Pin_3*%
%TO.N,/WW*%
X145750000Y-112500000D03*
D18*
X136500000Y-112500000D03*
%TD*%
D17*
%TO.P,J1,1,Pin_1*%
%TO.N,+24V*%
X145750000Y-88500000D03*
D18*
X136500000Y-88500000D03*
%TO.P,J1,2,Pin_2*%
%TO.N,GND*%
X136500000Y-92500000D03*
D17*
X145750000Y-92500000D03*
%TO.P,J1,3,Pin_3*%
%TO.N,+12V*%
X145750000Y-96500000D03*
D18*
X136500000Y-96500000D03*
%TD*%
D19*
%TO.N,GND*%
X151746634Y-91997651D03*
X151750000Y-93000000D03*
X150746634Y-91997651D03*
X150750000Y-93000000D03*
X149746634Y-91997651D03*
X149750000Y-93000000D03*
X149500000Y-108250000D03*
X150250000Y-107500000D03*
X148750000Y-107500000D03*
X149500000Y-106750000D03*
X148750000Y-93000000D03*
X148746634Y-91997651D03*
%TO.N,Net-(Q1-Pad4)*%
X165000000Y-104250000D03*
X157750000Y-108000000D03*
%TO.N,Net-(Q1-Pad2)*%
X164750000Y-102500000D03*
X157750000Y-105000000D03*
%TO.N,GND*%
X162000000Y-100250000D03*
X161000000Y-100250000D03*
X162000000Y-104500000D03*
X161000000Y-104500000D03*
X161500000Y-103750000D03*
X161996044Y-102995965D03*
X161000000Y-103000000D03*
X162000000Y-101750000D03*
X161000000Y-101750000D03*
X161500000Y-101000000D03*
%TD*%
D20*
%TO.N,+12V*%
X159000000Y-106000000D02*
X158500000Y-106500000D01*
X158500000Y-106500000D02*
X158462500Y-106500000D01*
X146500000Y-95750000D02*
X156500000Y-95750000D01*
X156500000Y-95750000D02*
X159000000Y-98250000D01*
X145750000Y-96500000D02*
X146500000Y-95750000D01*
X159000000Y-98250000D02*
X159000000Y-106000000D01*
X136500000Y-96500000D02*
X145750000Y-96500000D01*
D21*
%TO.N,/EN*%
X156112500Y-104612500D02*
X156112500Y-105025000D01*
X156000000Y-104500000D02*
X156112500Y-104612500D01*
X151750000Y-104500000D02*
X156000000Y-104500000D01*
X151250000Y-104000000D02*
X151750000Y-104500000D01*
X150250000Y-104000000D02*
X151250000Y-104000000D01*
X149750000Y-104500000D02*
X150250000Y-104000000D01*
%TO.N,Net-(Q1-Pad2)*%
X163480000Y-102500000D02*
X163380000Y-102400000D01*
X164750000Y-102500000D02*
X163480000Y-102500000D01*
%TO.N,/WW*%
X150000000Y-112500000D02*
X145750000Y-112500000D01*
X151887500Y-110612500D02*
X150000000Y-112500000D01*
X151887500Y-106975000D02*
X151887500Y-110612500D01*
%TO.N,/CW*%
X149075000Y-105675000D02*
X151887500Y-105675000D01*
X146250000Y-108500000D02*
X149075000Y-105675000D01*
X145750000Y-108500000D02*
X146250000Y-108500000D01*
%TO.N,/EN*%
X149750000Y-104500000D02*
X145750000Y-104500000D01*
X150275000Y-105025000D02*
X149750000Y-104500000D01*
X151887500Y-105025000D02*
X150275000Y-105025000D01*
D20*
%TO.N,/WW*%
X136500000Y-112500000D02*
X145750000Y-112500000D01*
%TO.N,/CW*%
X136500000Y-108500000D02*
X145750000Y-108500000D01*
%TO.N,/EN*%
X136500000Y-104500000D02*
X145750000Y-104500000D01*
D21*
%TO.N,Net-(Q1-Pad4)*%
X156725000Y-106975000D02*
X157750000Y-108000000D01*
X156112500Y-106975000D02*
X156725000Y-106975000D01*
X163930000Y-104250000D02*
X163380000Y-103700000D01*
X165000000Y-104250000D02*
X163930000Y-104250000D01*
%TO.N,Net-(Q1-Pad2)*%
X157699639Y-105050361D02*
X157750000Y-105000000D01*
X157500000Y-105050361D02*
X157699639Y-105050361D01*
X156875361Y-105675000D02*
X157500000Y-105050361D01*
X156112500Y-105675000D02*
X156875361Y-105675000D01*
%TD*%
%TA.AperFunction,Conductor*%
%TO.N,/CW_Gnd*%
G36*
X183942121Y-98770002D02*
G01*
X183988614Y-98823658D01*
X184000000Y-98876000D01*
X184000000Y-102124000D01*
X183979998Y-102192121D01*
X183926342Y-102238614D01*
X183874000Y-102250000D01*
X169000000Y-102250000D01*
X168526604Y-102486698D01*
X168470255Y-102500000D01*
X167126000Y-102500000D01*
X167057879Y-102479998D01*
X167011386Y-102426342D01*
X167000000Y-102374000D01*
X167000000Y-101309015D01*
X167020002Y-101240894D01*
X167045337Y-101212219D01*
X169964955Y-98779204D01*
X170030092Y-98750960D01*
X170045618Y-98750000D01*
X183874000Y-98750000D01*
X183942121Y-98770002D01*
G37*
%TD.AperFunction*%
%TD*%
%TA.AperFunction,Conductor*%
%TO.N,/WW_Gnd*%
G36*
X168515931Y-103020002D02*
G01*
X168536905Y-103036905D01*
X169000000Y-103500000D01*
X183874000Y-103500000D01*
X183942121Y-103520002D01*
X183988614Y-103573658D01*
X184000000Y-103626000D01*
X184000000Y-106374000D01*
X183979998Y-106442121D01*
X183926342Y-106488614D01*
X183874000Y-106500000D01*
X170038149Y-106500000D01*
X169968257Y-106478838D01*
X167056108Y-104537405D01*
X167010523Y-104482976D01*
X167000000Y-104432567D01*
X167000000Y-103126000D01*
X167020002Y-103057879D01*
X167073658Y-103011386D01*
X167126000Y-103000000D01*
X168447810Y-103000000D01*
X168515931Y-103020002D01*
G37*
%TD.AperFunction*%
%TD*%
%TA.AperFunction,Conductor*%
%TO.N,+24V*%
G36*
X183942121Y-86520002D02*
G01*
X183988614Y-86573658D01*
X184000000Y-86626000D01*
X184000000Y-98124000D01*
X183979998Y-98192121D01*
X183926342Y-98238614D01*
X183874000Y-98250000D01*
X170056716Y-98250000D01*
X169988595Y-98229998D01*
X169962394Y-98207542D01*
X169948736Y-98192121D01*
X162951570Y-90292095D01*
X177895028Y-90292095D01*
X177920534Y-90559431D01*
X177984364Y-90820285D01*
X178085182Y-91069192D01*
X178220875Y-91300938D01*
X178223728Y-91304505D01*
X178335225Y-91443925D01*
X178388601Y-91510669D01*
X178584846Y-91693991D01*
X178608455Y-91710369D01*
X178801746Y-91844461D01*
X178801751Y-91844464D01*
X178805499Y-91847064D01*
X178809584Y-91849096D01*
X178809587Y-91849098D01*
X178925719Y-91906872D01*
X179045938Y-91966680D01*
X179050272Y-91968101D01*
X179050275Y-91968102D01*
X179296793Y-92048915D01*
X179296798Y-92048916D01*
X179301126Y-92050335D01*
X179305617Y-92051115D01*
X179305618Y-92051115D01*
X179561936Y-92095620D01*
X179561944Y-92095621D01*
X179565717Y-92096276D01*
X179569554Y-92096467D01*
X179648996Y-92100422D01*
X179649004Y-92100422D01*
X179650567Y-92100500D01*
X179818223Y-92100500D01*
X179820491Y-92100335D01*
X179820503Y-92100335D01*
X179950823Y-92090879D01*
X180017846Y-92086016D01*
X180022301Y-92085032D01*
X180022304Y-92085032D01*
X180275620Y-92029105D01*
X180275624Y-92029104D01*
X180280080Y-92028120D01*
X180493797Y-91947150D01*
X180526941Y-91934593D01*
X180526944Y-91934592D01*
X180531211Y-91932975D01*
X180765976Y-91802574D01*
X180908254Y-91693991D01*
X180975833Y-91642417D01*
X180975837Y-91642413D01*
X180979458Y-91639650D01*
X181167185Y-91447614D01*
X181325225Y-91230491D01*
X181412313Y-91064963D01*
X181448140Y-90996868D01*
X181448143Y-90996862D01*
X181450265Y-90992828D01*
X181509703Y-90824515D01*
X181538165Y-90743916D01*
X181538165Y-90743915D01*
X181539688Y-90739603D01*
X181586425Y-90502481D01*
X181590739Y-90480594D01*
X181590740Y-90480588D01*
X181591620Y-90476122D01*
X181591847Y-90471566D01*
X181604745Y-90212474D01*
X181604745Y-90212468D01*
X181604972Y-90207905D01*
X181579466Y-89940569D01*
X181515636Y-89679715D01*
X181414818Y-89430808D01*
X181279125Y-89199062D01*
X181168211Y-89060371D01*
X181114251Y-88992897D01*
X181114250Y-88992895D01*
X181111399Y-88989331D01*
X180915154Y-88806009D01*
X180755436Y-88695208D01*
X180698254Y-88655539D01*
X180698249Y-88655536D01*
X180694501Y-88652936D01*
X180690416Y-88650904D01*
X180690413Y-88650902D01*
X180518560Y-88565407D01*
X180454062Y-88533320D01*
X180449728Y-88531899D01*
X180449725Y-88531898D01*
X180203207Y-88451085D01*
X180203202Y-88451084D01*
X180198874Y-88449665D01*
X180194382Y-88448885D01*
X179938064Y-88404380D01*
X179938056Y-88404379D01*
X179934283Y-88403724D01*
X179925622Y-88403293D01*
X179851004Y-88399578D01*
X179850996Y-88399578D01*
X179849433Y-88399500D01*
X179681777Y-88399500D01*
X179679509Y-88399665D01*
X179679497Y-88399665D01*
X179549177Y-88409121D01*
X179482154Y-88413984D01*
X179477699Y-88414968D01*
X179477696Y-88414968D01*
X179224380Y-88470895D01*
X179224376Y-88470896D01*
X179219920Y-88471880D01*
X179094355Y-88519452D01*
X178973059Y-88565407D01*
X178973056Y-88565408D01*
X178968789Y-88567025D01*
X178734024Y-88697426D01*
X178730392Y-88700198D01*
X178524167Y-88857583D01*
X178524163Y-88857587D01*
X178520542Y-88860350D01*
X178332815Y-89052386D01*
X178174775Y-89269509D01*
X178172651Y-89273547D01*
X178051860Y-89503132D01*
X178051857Y-89503138D01*
X178049735Y-89507172D01*
X178048215Y-89511477D01*
X178048213Y-89511481D01*
X177988804Y-89679715D01*
X177960312Y-89760397D01*
X177908380Y-90023878D01*
X177908153Y-90028431D01*
X177908153Y-90028434D01*
X177898992Y-90212474D01*
X177895028Y-90292095D01*
X162951570Y-90292095D01*
X162250000Y-89500000D01*
X133626000Y-89500000D01*
X133557879Y-89479998D01*
X133511386Y-89426342D01*
X133500000Y-89374000D01*
X133500000Y-86626000D01*
X133520002Y-86557879D01*
X133573658Y-86511386D01*
X133626000Y-86500000D01*
X183874000Y-86500000D01*
X183942121Y-86520002D01*
G37*
%TD.AperFunction*%
%TD*%
%TA.AperFunction,Conductor*%
%TO.N,GND*%
G36*
X164000000Y-101184000D02*
G01*
X163979998Y-101252121D01*
X163926342Y-101298614D01*
X163874000Y-101310000D01*
X163588115Y-101310000D01*
X163572876Y-101314475D01*
X163571671Y-101315865D01*
X163570000Y-101323548D01*
X163570000Y-101814000D01*
X163549998Y-101882121D01*
X163496342Y-101928614D01*
X163444000Y-101940000D01*
X162628115Y-101940000D01*
X162612876Y-101944475D01*
X162611671Y-101945865D01*
X162610830Y-101949733D01*
X162611207Y-101953561D01*
X162623187Y-102013790D01*
X162632501Y-102036275D01*
X162650539Y-102063271D01*
X162671753Y-102131024D01*
X162669352Y-102157853D01*
X162659500Y-102207383D01*
X162659501Y-102592616D01*
X162660708Y-102598684D01*
X162660708Y-102598685D01*
X162669353Y-102642148D01*
X162663024Y-102712862D01*
X162650538Y-102736731D01*
X162632502Y-102763724D01*
X162623187Y-102786210D01*
X162611259Y-102846174D01*
X162614475Y-102857124D01*
X162615865Y-102858329D01*
X162623548Y-102860000D01*
X163444000Y-102860000D01*
X163512121Y-102880002D01*
X163558614Y-102933658D01*
X163570000Y-102986000D01*
X163570000Y-103114000D01*
X163549998Y-103182121D01*
X163496342Y-103228614D01*
X163444000Y-103240000D01*
X162628115Y-103240000D01*
X162612876Y-103244475D01*
X162611671Y-103245865D01*
X162610830Y-103249733D01*
X162611207Y-103253561D01*
X162623187Y-103313790D01*
X162632501Y-103336275D01*
X162650539Y-103363271D01*
X162671753Y-103431024D01*
X162669352Y-103457853D01*
X162659500Y-103507383D01*
X162659501Y-103892616D01*
X162672236Y-103956645D01*
X162720750Y-104029250D01*
X162793355Y-104077764D01*
X162805524Y-104080185D01*
X162805525Y-104080185D01*
X162851315Y-104089293D01*
X162857383Y-104090500D01*
X163257983Y-104090500D01*
X163326104Y-104110502D01*
X163347078Y-104127405D01*
X163685895Y-104466222D01*
X163693321Y-104474325D01*
X163717545Y-104503194D01*
X163750184Y-104522038D01*
X163759452Y-104527942D01*
X163790316Y-104549553D01*
X163800962Y-104552406D01*
X163804130Y-104553883D01*
X163807407Y-104555076D01*
X163816955Y-104560588D01*
X163846508Y-104565799D01*
X163854069Y-104567132D01*
X163864804Y-104569512D01*
X163901193Y-104579263D01*
X163900465Y-104581980D01*
X163951096Y-104601783D01*
X163992738Y-104659285D01*
X164000000Y-104701443D01*
X164000000Y-108124000D01*
X163979998Y-108192121D01*
X163926342Y-108238614D01*
X163874000Y-108250000D01*
X159876000Y-108250000D01*
X159807879Y-108229998D01*
X159761386Y-108176342D01*
X159750000Y-108124000D01*
X159750000Y-107514522D01*
X159770002Y-107446401D01*
X159823658Y-107399908D01*
X159893932Y-107389804D01*
X159941697Y-107409604D01*
X159942362Y-107408389D01*
X159965823Y-107421233D01*
X160084133Y-107465586D01*
X160099379Y-107469211D01*
X160149271Y-107474631D01*
X160156085Y-107475000D01*
X160265385Y-107475000D01*
X160280624Y-107470525D01*
X160281829Y-107469135D01*
X160283500Y-107461452D01*
X160283500Y-107456885D01*
X160791500Y-107456885D01*
X160795975Y-107472124D01*
X160797365Y-107473329D01*
X160805048Y-107475000D01*
X160918915Y-107475000D01*
X160925729Y-107474631D01*
X160975621Y-107469211D01*
X160990867Y-107465586D01*
X161109177Y-107421233D01*
X161124763Y-107412701D01*
X161225009Y-107337570D01*
X161237570Y-107325009D01*
X161312701Y-107224763D01*
X161321233Y-107209177D01*
X161365586Y-107090867D01*
X161369211Y-107075621D01*
X161374631Y-107025729D01*
X161375000Y-107018915D01*
X161375000Y-106772115D01*
X161370525Y-106756876D01*
X161369135Y-106755671D01*
X161361452Y-106754000D01*
X160809615Y-106754000D01*
X160794376Y-106758475D01*
X160793171Y-106759865D01*
X160791500Y-106767548D01*
X160791500Y-107456885D01*
X160283500Y-107456885D01*
X160283500Y-106227885D01*
X160791500Y-106227885D01*
X160795975Y-106243124D01*
X160797365Y-106244329D01*
X160805048Y-106246000D01*
X161356885Y-106246000D01*
X161372124Y-106241525D01*
X161373329Y-106240135D01*
X161375000Y-106232452D01*
X161375000Y-105981085D01*
X161374631Y-105974271D01*
X161369211Y-105924379D01*
X161365586Y-105909133D01*
X161321233Y-105790823D01*
X161312701Y-105775237D01*
X161237570Y-105674991D01*
X161225009Y-105662430D01*
X161124763Y-105587299D01*
X161109177Y-105578767D01*
X160990867Y-105534414D01*
X160975621Y-105530789D01*
X160925729Y-105525369D01*
X160918915Y-105525000D01*
X160809615Y-105525000D01*
X160794376Y-105529475D01*
X160793171Y-105530865D01*
X160791500Y-105538548D01*
X160791500Y-106227885D01*
X160283500Y-106227885D01*
X160283500Y-105543115D01*
X160279025Y-105527876D01*
X160277635Y-105526671D01*
X160269952Y-105525000D01*
X160156085Y-105525000D01*
X160149271Y-105525369D01*
X160099379Y-105530789D01*
X160084133Y-105534414D01*
X159965823Y-105578767D01*
X159942362Y-105591611D01*
X159941513Y-105590061D01*
X159885054Y-105611152D01*
X159815672Y-105596097D01*
X159765444Y-105545921D01*
X159750000Y-105485478D01*
X159750000Y-101546174D01*
X162611259Y-101546174D01*
X162614475Y-101557124D01*
X162615865Y-101558329D01*
X162623548Y-101560000D01*
X163171885Y-101560000D01*
X163187124Y-101555525D01*
X163188329Y-101554135D01*
X163190000Y-101546452D01*
X163190000Y-101328115D01*
X163185525Y-101312876D01*
X163184135Y-101311671D01*
X163176452Y-101310000D01*
X162858693Y-101310000D01*
X162846439Y-101311207D01*
X162786210Y-101323187D01*
X162763724Y-101332501D01*
X162695378Y-101378169D01*
X162678169Y-101395378D01*
X162632501Y-101463724D01*
X162623187Y-101486210D01*
X162611259Y-101546174D01*
X159750000Y-101546174D01*
X159750000Y-99292000D01*
X159762332Y-99250000D01*
X164000000Y-99250000D01*
X164000000Y-101184000D01*
G37*
%TD.AperFunction*%
%TD*%
%TA.AperFunction,Conductor*%
%TO.N,+12V*%
G36*
X159442121Y-105520002D02*
G01*
X159488614Y-105573658D01*
X159500000Y-105626000D01*
X159500000Y-107124000D01*
X159479998Y-107192121D01*
X159426342Y-107238614D01*
X159374000Y-107250000D01*
X157802190Y-107250000D01*
X157734069Y-107229998D01*
X157713095Y-107213095D01*
X157250000Y-106750000D01*
X157173741Y-106750000D01*
X157105620Y-106729998D01*
X157077207Y-106702450D01*
X157076939Y-106701847D01*
X156997713Y-106622759D01*
X156987076Y-106618056D01*
X156987074Y-106618055D01*
X156903992Y-106581325D01*
X156903993Y-106581325D01*
X156895327Y-106577494D01*
X156869646Y-106574500D01*
X155376000Y-106574500D01*
X155307879Y-106554498D01*
X155261386Y-106500842D01*
X155250000Y-106448500D01*
X155250000Y-106201500D01*
X155270002Y-106133379D01*
X155323658Y-106086886D01*
X155376000Y-106075500D01*
X156869646Y-106075500D01*
X156873350Y-106075059D01*
X156873353Y-106075059D01*
X156880746Y-106074179D01*
X156895846Y-106072382D01*
X156998153Y-106026939D01*
X157003633Y-106021450D01*
X157072713Y-106000000D01*
X157250000Y-106000000D01*
X157612675Y-105637325D01*
X157674987Y-105603299D01*
X157718215Y-105601498D01*
X157741809Y-105604604D01*
X157741812Y-105604604D01*
X157750000Y-105605682D01*
X157758188Y-105604604D01*
X157898574Y-105586122D01*
X157906762Y-105585044D01*
X158052841Y-105524536D01*
X158059393Y-105519509D01*
X158063946Y-105516880D01*
X158126945Y-105500000D01*
X159374000Y-105500000D01*
X159442121Y-105520002D01*
G37*
%TD.AperFunction*%
%TD*%
%TA.AperFunction,Conductor*%
%TO.N,GND*%
G36*
X150996849Y-106021812D02*
G01*
X151002287Y-106027241D01*
X151104673Y-106072506D01*
X151130354Y-106075500D01*
X152624000Y-106075500D01*
X152692121Y-106095502D01*
X152738614Y-106149158D01*
X152750000Y-106201500D01*
X152750000Y-106374000D01*
X152729998Y-106442121D01*
X152676342Y-106488614D01*
X152624000Y-106500000D01*
X150750000Y-106500000D01*
X150750000Y-107947810D01*
X150729998Y-108015931D01*
X150713095Y-108036905D01*
X150036905Y-108713095D01*
X149974593Y-108747121D01*
X149947810Y-108750000D01*
X148376000Y-108750000D01*
X148307879Y-108729998D01*
X148261386Y-108676342D01*
X148250000Y-108624000D01*
X148250000Y-107052190D01*
X148270002Y-106984069D01*
X148286905Y-106963095D01*
X149212595Y-106037405D01*
X149274907Y-106003379D01*
X149301690Y-106000500D01*
X150927999Y-106000500D01*
X150996849Y-106021812D01*
G37*
%TD.AperFunction*%
%TD*%
%TA.AperFunction,Conductor*%
%TO.N,GND*%
G36*
X152617171Y-89770002D02*
G01*
X152650401Y-89801141D01*
X152697255Y-89864576D01*
X152697258Y-89864579D01*
X152702850Y-89872150D01*
X152710421Y-89877742D01*
X152804243Y-89947041D01*
X152804246Y-89947042D01*
X152811816Y-89952634D01*
X152939631Y-89997519D01*
X152947277Y-89998242D01*
X152947278Y-89998242D01*
X152953248Y-89998806D01*
X152971166Y-90000500D01*
X154028834Y-90000500D01*
X154046752Y-89998806D01*
X154052722Y-89998242D01*
X154052723Y-89998242D01*
X154060369Y-89997519D01*
X154188184Y-89952634D01*
X154195754Y-89947042D01*
X154195757Y-89947041D01*
X154289579Y-89877742D01*
X154297150Y-89872150D01*
X154302742Y-89864579D01*
X154302745Y-89864576D01*
X154349599Y-89801141D01*
X154406160Y-89758230D01*
X154450950Y-89750000D01*
X154874000Y-89750000D01*
X154942121Y-89770002D01*
X154988614Y-89823658D01*
X155000000Y-89876000D01*
X155000000Y-94374000D01*
X154979998Y-94442121D01*
X154926342Y-94488614D01*
X154874000Y-94500000D01*
X154039441Y-94500000D01*
X154033508Y-94499860D01*
X154031781Y-94499779D01*
X154028834Y-94499500D01*
X152971166Y-94499500D01*
X152968219Y-94499779D01*
X152966492Y-94499860D01*
X152960559Y-94500000D01*
X133626000Y-94500000D01*
X133557879Y-94479998D01*
X133511386Y-94426342D01*
X133500000Y-94374000D01*
X133500000Y-93876000D01*
X133520002Y-93807879D01*
X133573658Y-93761386D01*
X133626000Y-93750000D01*
X136227885Y-93750000D01*
X136243124Y-93745525D01*
X136244329Y-93744135D01*
X136246000Y-93736452D01*
X136246000Y-93731884D01*
X136754000Y-93731884D01*
X136758475Y-93747123D01*
X136759865Y-93748328D01*
X136767548Y-93749999D01*
X139428568Y-93749999D01*
X139437734Y-93749328D01*
X139492278Y-93741300D01*
X139510759Y-93735557D01*
X139597213Y-93693111D01*
X139613918Y-93681151D01*
X139681523Y-93613428D01*
X139693455Y-93596700D01*
X139735755Y-93510162D01*
X139741463Y-93491694D01*
X139749340Y-93437703D01*
X139750000Y-93428604D01*
X139750000Y-93428568D01*
X143750001Y-93428568D01*
X143750672Y-93437734D01*
X143758700Y-93492278D01*
X143764443Y-93510759D01*
X143806889Y-93597213D01*
X143818849Y-93613918D01*
X143886572Y-93681523D01*
X143903300Y-93693455D01*
X143989838Y-93735755D01*
X144008306Y-93741463D01*
X144062297Y-93749340D01*
X144071396Y-93750000D01*
X145477885Y-93750000D01*
X145493124Y-93745525D01*
X145494329Y-93744135D01*
X145496000Y-93736452D01*
X145496000Y-93731884D01*
X146004000Y-93731884D01*
X146008475Y-93747123D01*
X146009865Y-93748328D01*
X146017548Y-93749999D01*
X147428568Y-93749999D01*
X147437734Y-93749328D01*
X147492278Y-93741300D01*
X147510759Y-93735557D01*
X147597213Y-93693111D01*
X147613918Y-93681151D01*
X147681523Y-93613428D01*
X147693455Y-93596700D01*
X147694816Y-93593915D01*
X152525000Y-93593915D01*
X152525369Y-93600729D01*
X152530789Y-93650621D01*
X152534414Y-93665867D01*
X152578767Y-93784177D01*
X152587299Y-93799763D01*
X152662430Y-93900009D01*
X152674991Y-93912570D01*
X152775237Y-93987701D01*
X152790823Y-93996233D01*
X152909133Y-94040586D01*
X152924379Y-94044211D01*
X152974271Y-94049631D01*
X152981085Y-94050000D01*
X153227885Y-94050000D01*
X153243124Y-94045525D01*
X153244329Y-94044135D01*
X153246000Y-94036452D01*
X153246000Y-94031885D01*
X153754000Y-94031885D01*
X153758475Y-94047124D01*
X153759865Y-94048329D01*
X153767548Y-94050000D01*
X154018915Y-94050000D01*
X154025729Y-94049631D01*
X154075621Y-94044211D01*
X154090867Y-94040586D01*
X154209177Y-93996233D01*
X154224763Y-93987701D01*
X154325009Y-93912570D01*
X154337570Y-93900009D01*
X154412701Y-93799763D01*
X154421233Y-93784177D01*
X154465586Y-93665867D01*
X154469211Y-93650621D01*
X154474631Y-93600729D01*
X154475000Y-93593915D01*
X154475000Y-93484615D01*
X154470525Y-93469376D01*
X154469135Y-93468171D01*
X154461452Y-93466500D01*
X153772115Y-93466500D01*
X153756876Y-93470975D01*
X153755671Y-93472365D01*
X153754000Y-93480048D01*
X153754000Y-94031885D01*
X153246000Y-94031885D01*
X153246000Y-93484615D01*
X153241525Y-93469376D01*
X153240135Y-93468171D01*
X153232452Y-93466500D01*
X152543115Y-93466500D01*
X152527876Y-93470975D01*
X152526671Y-93472365D01*
X152525000Y-93480048D01*
X152525000Y-93593915D01*
X147694816Y-93593915D01*
X147735755Y-93510162D01*
X147741463Y-93491694D01*
X147749340Y-93437703D01*
X147750000Y-93428604D01*
X147750000Y-92940385D01*
X152525000Y-92940385D01*
X152529475Y-92955624D01*
X152530865Y-92956829D01*
X152538548Y-92958500D01*
X154456885Y-92958500D01*
X154472124Y-92954025D01*
X154473329Y-92952635D01*
X154475000Y-92944952D01*
X154475000Y-92831085D01*
X154474631Y-92824271D01*
X154469211Y-92774379D01*
X154465586Y-92759133D01*
X154421233Y-92640823D01*
X154412701Y-92625237D01*
X154337570Y-92524991D01*
X154325009Y-92512430D01*
X154224763Y-92437299D01*
X154209177Y-92428767D01*
X154090867Y-92384414D01*
X154075621Y-92380789D01*
X154024753Y-92375263D01*
X153959191Y-92348021D01*
X153918765Y-92289658D01*
X153916310Y-92218704D01*
X153952605Y-92157686D01*
X154016127Y-92125977D01*
X154024753Y-92124737D01*
X154075621Y-92119211D01*
X154090867Y-92115586D01*
X154209177Y-92071233D01*
X154224763Y-92062701D01*
X154325009Y-91987570D01*
X154337570Y-91975009D01*
X154412701Y-91874763D01*
X154421233Y-91859177D01*
X154465586Y-91740867D01*
X154469211Y-91725621D01*
X154474631Y-91675729D01*
X154475000Y-91668915D01*
X154475000Y-91559615D01*
X154470525Y-91544376D01*
X154469135Y-91543171D01*
X154461452Y-91541500D01*
X152543115Y-91541500D01*
X152527876Y-91545975D01*
X152526671Y-91547365D01*
X152525000Y-91555048D01*
X152525000Y-91668915D01*
X152525369Y-91675729D01*
X152530789Y-91725621D01*
X152534414Y-91740867D01*
X152578767Y-91859177D01*
X152587299Y-91874763D01*
X152662430Y-91975009D01*
X152674991Y-91987570D01*
X152775237Y-92062701D01*
X152790823Y-92071233D01*
X152909133Y-92115586D01*
X152924379Y-92119211D01*
X152975247Y-92124737D01*
X153040809Y-92151979D01*
X153081235Y-92210342D01*
X153083690Y-92281296D01*
X153047395Y-92342314D01*
X152983873Y-92374023D01*
X152975247Y-92375263D01*
X152924379Y-92380789D01*
X152909133Y-92384414D01*
X152790823Y-92428767D01*
X152775237Y-92437299D01*
X152674991Y-92512430D01*
X152662430Y-92524991D01*
X152587299Y-92625237D01*
X152578767Y-92640823D01*
X152534414Y-92759133D01*
X152530789Y-92774379D01*
X152525369Y-92824271D01*
X152525000Y-92831085D01*
X152525000Y-92940385D01*
X147750000Y-92940385D01*
X147750000Y-92772115D01*
X147745525Y-92756876D01*
X147744135Y-92755671D01*
X147736452Y-92754000D01*
X146022115Y-92754000D01*
X146006876Y-92758475D01*
X146005671Y-92759865D01*
X146004000Y-92767548D01*
X146004000Y-93731884D01*
X145496000Y-93731884D01*
X145496000Y-92772115D01*
X145491525Y-92756876D01*
X145490135Y-92755671D01*
X145482452Y-92754000D01*
X143768116Y-92754000D01*
X143752877Y-92758475D01*
X143751672Y-92759865D01*
X143750001Y-92767548D01*
X143750001Y-93428568D01*
X139750000Y-93428568D01*
X139750000Y-92772115D01*
X139745525Y-92756876D01*
X139744135Y-92755671D01*
X139736452Y-92754000D01*
X136772115Y-92754000D01*
X136756876Y-92758475D01*
X136755671Y-92759865D01*
X136754000Y-92767548D01*
X136754000Y-93731884D01*
X136246000Y-93731884D01*
X136246000Y-92227885D01*
X136754000Y-92227885D01*
X136758475Y-92243124D01*
X136759865Y-92244329D01*
X136767548Y-92246000D01*
X139731884Y-92246000D01*
X139747123Y-92241525D01*
X139748328Y-92240135D01*
X139749999Y-92232452D01*
X139749999Y-92227885D01*
X143750000Y-92227885D01*
X143754475Y-92243124D01*
X143755865Y-92244329D01*
X143763548Y-92246000D01*
X145477885Y-92246000D01*
X145493124Y-92241525D01*
X145494329Y-92240135D01*
X145496000Y-92232452D01*
X145496000Y-92227885D01*
X146004000Y-92227885D01*
X146008475Y-92243124D01*
X146009865Y-92244329D01*
X146017548Y-92246000D01*
X147731884Y-92246000D01*
X147747123Y-92241525D01*
X147748328Y-92240135D01*
X147749999Y-92232452D01*
X147749999Y-91571432D01*
X147749328Y-91562266D01*
X147741300Y-91507722D01*
X147735557Y-91489241D01*
X147693111Y-91402787D01*
X147681151Y-91386082D01*
X147613428Y-91318477D01*
X147596700Y-91306545D01*
X147510162Y-91264245D01*
X147491694Y-91258537D01*
X147437703Y-91250660D01*
X147428604Y-91250000D01*
X146022115Y-91250000D01*
X146006876Y-91254475D01*
X146005671Y-91255865D01*
X146004000Y-91263548D01*
X146004000Y-92227885D01*
X145496000Y-92227885D01*
X145496000Y-91268116D01*
X145491525Y-91252877D01*
X145490135Y-91251672D01*
X145482452Y-91250001D01*
X144071432Y-91250001D01*
X144062266Y-91250672D01*
X144007722Y-91258700D01*
X143989241Y-91264443D01*
X143902787Y-91306889D01*
X143886082Y-91318849D01*
X143818477Y-91386572D01*
X143806545Y-91403300D01*
X143764245Y-91489838D01*
X143758537Y-91508306D01*
X143750660Y-91562297D01*
X143750000Y-91571396D01*
X143750000Y-92227885D01*
X139749999Y-92227885D01*
X139749999Y-91571432D01*
X139749328Y-91562266D01*
X139741300Y-91507722D01*
X139735557Y-91489241D01*
X139693111Y-91402787D01*
X139681151Y-91386082D01*
X139613428Y-91318477D01*
X139596700Y-91306545D01*
X139510162Y-91264245D01*
X139491694Y-91258537D01*
X139437703Y-91250660D01*
X139428604Y-91250000D01*
X136772115Y-91250000D01*
X136756876Y-91254475D01*
X136755671Y-91255865D01*
X136754000Y-91263548D01*
X136754000Y-92227885D01*
X136246000Y-92227885D01*
X136246000Y-91268116D01*
X136241525Y-91252877D01*
X136240135Y-91251672D01*
X136232452Y-91250001D01*
X133626000Y-91250001D01*
X133557879Y-91229999D01*
X133511386Y-91176343D01*
X133500000Y-91124001D01*
X133500000Y-91015385D01*
X152525000Y-91015385D01*
X152529475Y-91030624D01*
X152530865Y-91031829D01*
X152538548Y-91033500D01*
X153227885Y-91033500D01*
X153243124Y-91029025D01*
X153244329Y-91027635D01*
X153246000Y-91019952D01*
X153246000Y-91015385D01*
X153754000Y-91015385D01*
X153758475Y-91030624D01*
X153759865Y-91031829D01*
X153767548Y-91033500D01*
X154456885Y-91033500D01*
X154472124Y-91029025D01*
X154473329Y-91027635D01*
X154475000Y-91019952D01*
X154475000Y-90906085D01*
X154474631Y-90899271D01*
X154469211Y-90849379D01*
X154465586Y-90834133D01*
X154421233Y-90715823D01*
X154412701Y-90700237D01*
X154337570Y-90599991D01*
X154325009Y-90587430D01*
X154224763Y-90512299D01*
X154209177Y-90503767D01*
X154090867Y-90459414D01*
X154075621Y-90455789D01*
X154025729Y-90450369D01*
X154018915Y-90450000D01*
X153772115Y-90450000D01*
X153756876Y-90454475D01*
X153755671Y-90455865D01*
X153754000Y-90463548D01*
X153754000Y-91015385D01*
X153246000Y-91015385D01*
X153246000Y-90468115D01*
X153241525Y-90452876D01*
X153240135Y-90451671D01*
X153232452Y-90450000D01*
X152981085Y-90450000D01*
X152974271Y-90450369D01*
X152924379Y-90455789D01*
X152909133Y-90459414D01*
X152790823Y-90503767D01*
X152775237Y-90512299D01*
X152674991Y-90587430D01*
X152662430Y-90599991D01*
X152587299Y-90700237D01*
X152578767Y-90715823D01*
X152534414Y-90834133D01*
X152530789Y-90849379D01*
X152525369Y-90899271D01*
X152525000Y-90906085D01*
X152525000Y-91015385D01*
X133500000Y-91015385D01*
X133500000Y-89876000D01*
X133520002Y-89807879D01*
X133573658Y-89761386D01*
X133626000Y-89750000D01*
X152549050Y-89750000D01*
X152617171Y-89770002D01*
G37*
%TD.AperFunction*%
%TD*%
%TA.AperFunction,Conductor*%
%TO.N,+24V*%
G36*
X167514000Y-95443226D02*
G01*
X167514000Y-95690385D01*
X167518475Y-95705624D01*
X167519865Y-95706829D01*
X167527548Y-95708500D01*
X167748957Y-95708500D01*
X168198900Y-96216500D01*
X166303115Y-96216500D01*
X166287876Y-96220975D01*
X166286671Y-96222365D01*
X166285000Y-96230048D01*
X166285000Y-96343915D01*
X166285369Y-96350724D01*
X166286419Y-96360390D01*
X166273892Y-96430273D01*
X166225572Y-96482289D01*
X166161156Y-96500000D01*
X166098844Y-96500000D01*
X166030723Y-96479998D01*
X165984230Y-96426342D01*
X165973581Y-96360390D01*
X165974631Y-96350724D01*
X165975000Y-96343915D01*
X165975000Y-96234615D01*
X165970525Y-96219376D01*
X165969135Y-96218171D01*
X165961452Y-96216500D01*
X164043115Y-96216500D01*
X164027876Y-96220975D01*
X164026671Y-96222365D01*
X164025000Y-96230048D01*
X164025000Y-96343915D01*
X164025369Y-96350724D01*
X164026419Y-96360390D01*
X164013892Y-96430273D01*
X163965572Y-96482289D01*
X163901156Y-96500000D01*
X163876000Y-96500000D01*
X163807879Y-96479998D01*
X163761386Y-96426342D01*
X163750000Y-96374000D01*
X163750000Y-95690385D01*
X164025000Y-95690385D01*
X164029475Y-95705624D01*
X164030865Y-95706829D01*
X164038548Y-95708500D01*
X164727885Y-95708500D01*
X164743124Y-95704025D01*
X164744329Y-95702635D01*
X164746000Y-95694952D01*
X164746000Y-95690385D01*
X165254000Y-95690385D01*
X165258475Y-95705624D01*
X165259865Y-95706829D01*
X165267548Y-95708500D01*
X165956885Y-95708500D01*
X165972124Y-95704025D01*
X165973329Y-95702635D01*
X165975000Y-95694952D01*
X165975000Y-95690385D01*
X166285000Y-95690385D01*
X166289475Y-95705624D01*
X166290865Y-95706829D01*
X166298548Y-95708500D01*
X166987885Y-95708500D01*
X167003124Y-95704025D01*
X167004329Y-95702635D01*
X167006000Y-95694952D01*
X167006000Y-95143115D01*
X167001525Y-95127876D01*
X167000135Y-95126671D01*
X166992452Y-95125000D01*
X166741085Y-95125000D01*
X166734271Y-95125369D01*
X166684379Y-95130789D01*
X166669133Y-95134414D01*
X166550823Y-95178767D01*
X166535237Y-95187299D01*
X166434991Y-95262430D01*
X166422430Y-95274991D01*
X166347299Y-95375237D01*
X166338767Y-95390823D01*
X166294414Y-95509133D01*
X166290789Y-95524379D01*
X166285369Y-95574271D01*
X166285000Y-95581085D01*
X166285000Y-95690385D01*
X165975000Y-95690385D01*
X165975000Y-95581085D01*
X165974631Y-95574271D01*
X165969211Y-95524379D01*
X165965586Y-95509133D01*
X165921233Y-95390823D01*
X165912701Y-95375237D01*
X165837570Y-95274991D01*
X165825009Y-95262430D01*
X165724763Y-95187299D01*
X165709177Y-95178767D01*
X165590867Y-95134414D01*
X165575621Y-95130789D01*
X165525729Y-95125369D01*
X165518915Y-95125000D01*
X165272115Y-95125000D01*
X165256876Y-95129475D01*
X165255671Y-95130865D01*
X165254000Y-95138548D01*
X165254000Y-95690385D01*
X164746000Y-95690385D01*
X164746000Y-95143115D01*
X164741525Y-95127876D01*
X164740135Y-95126671D01*
X164732452Y-95125000D01*
X164481085Y-95125000D01*
X164474271Y-95125369D01*
X164424379Y-95130789D01*
X164409133Y-95134414D01*
X164290823Y-95178767D01*
X164275237Y-95187299D01*
X164174991Y-95262430D01*
X164162430Y-95274991D01*
X164087299Y-95375237D01*
X164078767Y-95390823D01*
X164034414Y-95509133D01*
X164030789Y-95524379D01*
X164025369Y-95574271D01*
X164025000Y-95581085D01*
X164025000Y-95690385D01*
X163750000Y-95690385D01*
X163750000Y-94807952D01*
X163770002Y-94739831D01*
X163794000Y-94712286D01*
X165464610Y-93280334D01*
X165529349Y-93251188D01*
X165546610Y-93250000D01*
X165571429Y-93250000D01*
X167514000Y-95443226D01*
G37*
%TD.AperFunction*%
%TD*%
%TA.AperFunction,Conductor*%
%TO.N,GND*%
G36*
X164053599Y-97270002D02*
G01*
X164100092Y-97323658D01*
X164110196Y-97393932D01*
X164090396Y-97441697D01*
X164091611Y-97442362D01*
X164078767Y-97465823D01*
X164034414Y-97584133D01*
X164030789Y-97599379D01*
X164025369Y-97649271D01*
X164025000Y-97656085D01*
X164025000Y-97765385D01*
X164029475Y-97780624D01*
X164030865Y-97781829D01*
X164038548Y-97783500D01*
X165956885Y-97783500D01*
X165972124Y-97779025D01*
X165973329Y-97777635D01*
X165975000Y-97769952D01*
X165975000Y-97656085D01*
X165974631Y-97649271D01*
X165969211Y-97599379D01*
X165965586Y-97584133D01*
X165921233Y-97465823D01*
X165908389Y-97442362D01*
X165909939Y-97441513D01*
X165888848Y-97385054D01*
X165903903Y-97315672D01*
X165954079Y-97265444D01*
X166014522Y-97250000D01*
X166245478Y-97250000D01*
X166313599Y-97270002D01*
X166360092Y-97323658D01*
X166370196Y-97393932D01*
X166350396Y-97441697D01*
X166351611Y-97442362D01*
X166338767Y-97465823D01*
X166294414Y-97584133D01*
X166290789Y-97599379D01*
X166285369Y-97649271D01*
X166285000Y-97656085D01*
X166285000Y-97765385D01*
X166289475Y-97780624D01*
X166290865Y-97781829D01*
X166298548Y-97783500D01*
X167388000Y-97783500D01*
X167456121Y-97803502D01*
X167502614Y-97857158D01*
X167514000Y-97909500D01*
X167514000Y-98856885D01*
X167518475Y-98872124D01*
X167519865Y-98873329D01*
X167527548Y-98875000D01*
X167778915Y-98875000D01*
X167785729Y-98874631D01*
X167835621Y-98869211D01*
X167850867Y-98865586D01*
X167969177Y-98821233D01*
X167984763Y-98812701D01*
X168048435Y-98764981D01*
X168114942Y-98740133D01*
X168184324Y-98755186D01*
X168234554Y-98805360D01*
X168250000Y-98865807D01*
X168250000Y-99374000D01*
X168229998Y-99442121D01*
X168176342Y-99488614D01*
X168124000Y-99500000D01*
X161250000Y-99500000D01*
X161250000Y-98418915D01*
X164025000Y-98418915D01*
X164025369Y-98425729D01*
X164030789Y-98475621D01*
X164034414Y-98490867D01*
X164078767Y-98609177D01*
X164087299Y-98624763D01*
X164162430Y-98725009D01*
X164174991Y-98737570D01*
X164275237Y-98812701D01*
X164290823Y-98821233D01*
X164409133Y-98865586D01*
X164424379Y-98869211D01*
X164474271Y-98874631D01*
X164481085Y-98875000D01*
X164727885Y-98875000D01*
X164743124Y-98870525D01*
X164744329Y-98869135D01*
X164746000Y-98861452D01*
X164746000Y-98856885D01*
X165254000Y-98856885D01*
X165258475Y-98872124D01*
X165259865Y-98873329D01*
X165267548Y-98875000D01*
X165518915Y-98875000D01*
X165525729Y-98874631D01*
X165575621Y-98869211D01*
X165590867Y-98865586D01*
X165709177Y-98821233D01*
X165724763Y-98812701D01*
X165825009Y-98737570D01*
X165837570Y-98725009D01*
X165912701Y-98624763D01*
X165921233Y-98609177D01*
X165965586Y-98490867D01*
X165969211Y-98475621D01*
X165974631Y-98425729D01*
X165975000Y-98418915D01*
X166285000Y-98418915D01*
X166285369Y-98425729D01*
X166290789Y-98475621D01*
X166294414Y-98490867D01*
X166338767Y-98609177D01*
X166347299Y-98624763D01*
X166422430Y-98725009D01*
X166434991Y-98737570D01*
X166535237Y-98812701D01*
X166550823Y-98821233D01*
X166669133Y-98865586D01*
X166684379Y-98869211D01*
X166734271Y-98874631D01*
X166741085Y-98875000D01*
X166987885Y-98875000D01*
X167003124Y-98870525D01*
X167004329Y-98869135D01*
X167006000Y-98861452D01*
X167006000Y-98309615D01*
X167001525Y-98294376D01*
X167000135Y-98293171D01*
X166992452Y-98291500D01*
X166303115Y-98291500D01*
X166287876Y-98295975D01*
X166286671Y-98297365D01*
X166285000Y-98305048D01*
X166285000Y-98418915D01*
X165975000Y-98418915D01*
X165975000Y-98309615D01*
X165970525Y-98294376D01*
X165969135Y-98293171D01*
X165961452Y-98291500D01*
X165272115Y-98291500D01*
X165256876Y-98295975D01*
X165255671Y-98297365D01*
X165254000Y-98305048D01*
X165254000Y-98856885D01*
X164746000Y-98856885D01*
X164746000Y-98309615D01*
X164741525Y-98294376D01*
X164740135Y-98293171D01*
X164732452Y-98291500D01*
X164043115Y-98291500D01*
X164027876Y-98295975D01*
X164026671Y-98297365D01*
X164025000Y-98305048D01*
X164025000Y-98418915D01*
X161250000Y-98418915D01*
X161250000Y-97272157D01*
X161269074Y-97257905D01*
X161313000Y-97250000D01*
X163985478Y-97250000D01*
X164053599Y-97270002D01*
G37*
%TD.AperFunction*%
%TD*%
%TA.AperFunction,Conductor*%
%TO.N,GND*%
G36*
X161250000Y-99250000D02*
G01*
X159762332Y-99250000D01*
X159770002Y-99223879D01*
X159775200Y-99216400D01*
X161212200Y-97300400D01*
X161250000Y-97272157D01*
X161250000Y-99250000D01*
G37*
%TD.AperFunction*%
%TD*%
M02*
