M48
; DRILL file {KiCad (6.0.4)} date Mon Oct 31 11:49:14 2022
; FORMAT={-:-/ absolute / inch / decimal}
; #@! TF.CreationDate,2022-10-31T11:49:14-04:00
; #@! TF.GenerationSoftware,Kicad,Pcbnew,(6.0.4)
; #@! TF.FileFunction,Plated,1,2,PTH
FMAT,2
INCH
; #@! TA.AperFunction,Plated,PTH,ViaDrill
T1C0.0157
%
G90
G05
T1
X5.8562Y-3.622
X5.8563Y-3.6614
X5.8563Y-4.2323
X5.8858Y-4.2028
X5.8858Y-4.2618
X5.8955Y-3.622
X5.8957Y-3.6614
X5.9154Y-4.2323
X5.9349Y-3.622
X5.935Y-3.6614
X5.9743Y-3.622
X5.9744Y-3.6614
X6.2106Y-4.1339
X6.2106Y-4.252
X6.3386Y-3.9469
X6.3386Y-4.0059
X6.3386Y-4.0551
X6.3386Y-4.1142
X6.3583Y-3.9764
X6.3583Y-4.0846
X6.3778Y-4.055
X6.378Y-3.9469
X6.378Y-4.0059
X6.378Y-4.1142
X6.4862Y-4.0354
X6.4961Y-4.1043
T0
M30
