%TF.GenerationSoftware,KiCad,Pcbnew,(6.0.4)*%
%TF.CreationDate,2022-11-04T10:04:38-04:00*%
%TF.ProjectId,controller board,636f6e74-726f-46c6-9c65-7220626f6172,rev?*%
%TF.SameCoordinates,Original*%
%TF.FileFunction,Copper,L4,Bot*%
%TF.FilePolarity,Positive*%
%FSLAX46Y46*%
G04 Gerber Fmt 4.6, Leading zero omitted, Abs format (unit mm)*
G04 Created by KiCad (PCBNEW (6.0.4)) date 2022-11-04 10:04:38*
%MOMM*%
%LPD*%
G01*
G04 APERTURE LIST*
%TA.AperFunction,ComponentPad*%
%ADD10C,1.778000*%
%TD*%
%TA.AperFunction,SMDPad,CuDef*%
%ADD11R,2.510000X1.000000*%
%TD*%
%TA.AperFunction,ViaPad*%
%ADD12C,0.800000*%
%TD*%
%TA.AperFunction,Conductor*%
%ADD13C,0.200000*%
%TD*%
%TA.AperFunction,Conductor*%
%ADD14C,1.000000*%
%TD*%
G04 APERTURE END LIST*
D10*
%TO.P,U2,1,+Vin*%
%TO.N,+24V*%
X131254000Y-85286000D03*
%TO.P,U2,2,GND*%
%TO.N,GND*%
X128714000Y-85286000D03*
%TO.P,U2,3,+Vout_12*%
%TO.N,+12V*%
X126174000Y-85286000D03*
%TD*%
%TO.P,U1,1,+Vin*%
%TO.N,+24V*%
X128286000Y-70460000D03*
%TO.P,U1,2,GND*%
%TO.N,GND*%
X128286000Y-73000000D03*
%TO.P,U1,3,+Vout_3v3*%
%TO.N,+3V3*%
X128286000Y-75540000D03*
%TD*%
D11*
%TO.P,J7,1,Pin_1*%
%TO.N,+3V3*%
X110345000Y-80810000D03*
%TO.P,J7,2,Pin_2*%
%TO.N,GND*%
X113655000Y-78270000D03*
%TO.P,J7,3,Pin_3*%
%TO.N,/RX*%
X110345000Y-75730000D03*
%TO.P,J7,4,Pin_4*%
%TO.N,/TX*%
X113655000Y-73190000D03*
%TD*%
%TO.P,U3,1,A0*%
%TO.N,/CH2 EN*%
X129275000Y-51187500D03*
%TO.P,U3,2,A1*%
%TO.N,/CH2 CW*%
X125965000Y-53727500D03*
%TO.P,U3,3,A2*%
%TO.N,/CH2 WW*%
X129275000Y-56267500D03*
%TO.P,U3,4,A3*%
%TO.N,/CH3 EN*%
X125965000Y-58807500D03*
%TO.P,U3,5,SDA*%
%TO.N,/CH3 CW*%
X129275000Y-61347500D03*
%TO.P,U3,6,SCL*%
%TO.N,/CH3 WW*%
X125965000Y-63887500D03*
%TO.P,U3,7,TX*%
%TO.N,/TX*%
X129275000Y-66427500D03*
%TO.P,U3,8,RX*%
%TO.N,/RX*%
X114035000Y-66427500D03*
%TO.P,U3,9,SCK*%
%TO.N,/CH1 WW*%
X110725000Y-63887500D03*
%TO.P,U3,10,MISO*%
%TO.N,/CH1 CW*%
X114035000Y-61347500D03*
%TO.P,U3,11,MOSI*%
%TO.N,/CH1 EN*%
X110725000Y-58807500D03*
%TO.P,U3,12,3v3*%
%TO.N,+3V3*%
X114035000Y-56267500D03*
%TO.P,U3,13,GND*%
%TO.N,GND*%
X110725000Y-53727500D03*
%TO.P,U3,14,5V*%
%TO.N,unconnected-(U3-Pad14)*%
X114035000Y-51187500D03*
%TD*%
D12*
%TO.N,GND*%
X129500000Y-91000000D03*
X134000000Y-64500000D03*
X109500000Y-78000000D03*
X121500000Y-101500000D03*
X120000000Y-100000000D03*
X123000000Y-98500000D03*
X111500000Y-50000000D03*
X134000000Y-69000000D03*
X122981048Y-99981808D03*
X123000000Y-104500000D03*
X134000000Y-91000000D03*
X134000000Y-66000000D03*
X123000000Y-101500000D03*
X126500000Y-91000000D03*
X120000000Y-101500000D03*
X132500000Y-66000000D03*
X131000000Y-91000000D03*
X134000000Y-67500000D03*
X132500000Y-64500000D03*
X122981048Y-102996739D03*
X120000000Y-98500000D03*
X132500000Y-91000000D03*
X132500000Y-67500000D03*
X121500000Y-97000000D03*
X121500000Y-98500000D03*
X121500000Y-103000000D03*
X128000000Y-91000000D03*
X121500000Y-100000000D03*
X120000000Y-103000000D03*
X123000000Y-97000000D03*
%TO.N,+3V3*%
X120000000Y-52000000D03*
%TO.N,/CH1 EN*%
X107000000Y-50000000D03*
%TO.N,/CH1 CW*%
X119000000Y-56000000D03*
%TO.N,/CH1 WW*%
X108000000Y-64000000D03*
X119000000Y-60000000D03*
%TO.N,/CH2 EN*%
X120000000Y-67000000D03*
%TO.N,/CH2 CW*%
X120000000Y-71000000D03*
%TO.N,/CH2 WW*%
X120000000Y-75000000D03*
%TO.N,/CH3 EN*%
X120000000Y-81000000D03*
%TO.N,/CH3 CW*%
X120000000Y-85000000D03*
%TO.N,/CH3 WW*%
X125000000Y-78000000D03*
%TD*%
D13*
%TO.N,+3V3*%
X110345000Y-82845000D02*
X110345000Y-80810000D01*
X115000000Y-87500000D02*
X110345000Y-82845000D01*
X120000000Y-87500000D02*
X115000000Y-87500000D01*
X128286000Y-79214000D02*
X120000000Y-87500000D01*
X128286000Y-75540000D02*
X128286000Y-79214000D01*
D14*
%TO.N,GND*%
X110725000Y-53727500D02*
X110725000Y-50775000D01*
D13*
X113655000Y-78270000D02*
X109770000Y-78270000D01*
D14*
X110725000Y-50775000D02*
X111500000Y-50000000D01*
D13*
X109770000Y-78270000D02*
X109500000Y-78000000D01*
D14*
%TO.N,+3V3*%
X117000000Y-52000000D02*
X120000000Y-52000000D01*
X114035000Y-54965000D02*
X117000000Y-52000000D01*
X114035000Y-56267500D02*
X114035000Y-54965000D01*
D13*
%TO.N,/CH1 EN*%
X107000000Y-55082500D02*
X107000000Y-50000000D01*
X110725000Y-58807500D02*
X107000000Y-55082500D01*
%TO.N,/CH1 CW*%
X114035000Y-61347500D02*
X115652500Y-61347500D01*
X115652500Y-61347500D02*
X119000000Y-58000000D01*
X119000000Y-58000000D02*
X119000000Y-56000000D01*
%TO.N,/CH1 WW*%
X110725000Y-63887500D02*
X108112500Y-63887500D01*
X110725000Y-63887500D02*
X115112500Y-63887500D01*
X108112500Y-63887500D02*
X108000000Y-64000000D01*
X115112500Y-63887500D02*
X119000000Y-60000000D01*
%TO.N,/CH2 EN*%
X122812500Y-51187500D02*
X120000000Y-54000000D01*
X120000000Y-54000000D02*
X120000000Y-67000000D01*
X129275000Y-51187500D02*
X122812500Y-51187500D01*
%TO.N,/CH2 CW*%
X125965000Y-53727500D02*
X122272500Y-53727500D01*
X121000000Y-70000000D02*
X120000000Y-71000000D01*
X121000000Y-55000000D02*
X121000000Y-70000000D01*
X122272500Y-53727500D02*
X121000000Y-55000000D01*
%TO.N,/CH2 WW*%
X129275000Y-56267500D02*
X122732500Y-56267500D01*
X122000000Y-74000000D02*
X121000000Y-75000000D01*
X122000000Y-57000000D02*
X122000000Y-74000000D01*
X121000000Y-75000000D02*
X120000000Y-75000000D01*
X122732500Y-56267500D02*
X122000000Y-57000000D01*
%TO.N,/CH3 EN*%
X122000000Y-81000000D02*
X120000000Y-81000000D01*
X125965000Y-58807500D02*
X124192500Y-58807500D01*
X123000000Y-80000000D02*
X122000000Y-81000000D01*
X123000000Y-60000000D02*
X123000000Y-80000000D01*
X124192500Y-58807500D02*
X123000000Y-60000000D01*
%TO.N,/CH3 CW*%
X124000000Y-81000000D02*
X120000000Y-85000000D01*
X124000000Y-63498478D02*
X124000000Y-81000000D01*
X126150978Y-61347500D02*
X124000000Y-63498478D01*
X129275000Y-61347500D02*
X126150978Y-61347500D01*
%TO.N,/CH3 WW*%
X125000000Y-64852500D02*
X125965000Y-63887500D01*
X125000000Y-78000000D02*
X125000000Y-64852500D01*
%TO.N,/RX*%
X114035000Y-66427500D02*
X114035000Y-67965000D01*
X114035000Y-67965000D02*
X110345000Y-71655000D01*
X110345000Y-71655000D02*
X110345000Y-75730000D01*
%TO.N,/TX*%
X129275000Y-66427500D02*
X127572500Y-66427500D01*
X126000000Y-80500000D02*
X120500000Y-86000000D01*
X117000000Y-83478503D02*
X117000000Y-76535000D01*
X126000000Y-68000000D02*
X126000000Y-80500000D01*
X120500000Y-86000000D02*
X119521497Y-86000000D01*
X117000000Y-76535000D02*
X113655000Y-73190000D01*
X119521497Y-86000000D02*
X117000000Y-83478503D01*
X127572500Y-66427500D02*
X126000000Y-68000000D01*
%TD*%
M02*
