%TF.GenerationSoftware,KiCad,Pcbnew,(6.0.4)*%
%TF.CreationDate,2022-11-04T10:04:38-04:00*%
%TF.ProjectId,controller board,636f6e74-726f-46c6-9c65-7220626f6172,rev?*%
%TF.SameCoordinates,Original*%
%TF.FileFunction,Legend,Top*%
%TF.FilePolarity,Positive*%
%FSLAX46Y46*%
G04 Gerber Fmt 4.6, Leading zero omitted, Abs format (unit mm)*
G04 Created by KiCad (PCBNEW (6.0.4)) date 2022-11-04 10:04:38*
%MOMM*%
%LPD*%
G01*
G04 APERTURE LIST*
%ADD10C,0.250000*%
%ADD11C,0.300000*%
%ADD12C,0.150000*%
%ADD13C,0.120000*%
G04 APERTURE END LIST*
D10*
X125678857Y-66300000D02*
X124878857Y-65671428D01*
X124878857Y-66300000D02*
X125678857Y-65671428D01*
X125678857Y-65328571D02*
X124878857Y-64700000D01*
X124878857Y-65328571D02*
X125678857Y-64700000D01*
X128457142Y-66414285D02*
X128400000Y-66357142D01*
X128342857Y-66242857D01*
X128342857Y-65957142D01*
X128400000Y-65842857D01*
X128457142Y-65785714D01*
X128571428Y-65728571D01*
X128685714Y-65728571D01*
X128857142Y-65785714D01*
X129542857Y-66471428D01*
X129542857Y-65728571D01*
X128742857Y-64700000D02*
X129542857Y-64700000D01*
X128285714Y-64985714D02*
X129142857Y-65271428D01*
X129142857Y-64528571D01*
X132264000Y-66414285D02*
X132206857Y-66528571D01*
X132206857Y-66700000D01*
X132264000Y-66871428D01*
X132378285Y-66985714D01*
X132492571Y-67042857D01*
X132721142Y-67100000D01*
X132892571Y-67100000D01*
X133121142Y-67042857D01*
X133235428Y-66985714D01*
X133349714Y-66871428D01*
X133406857Y-66700000D01*
X133406857Y-66585714D01*
X133349714Y-66414285D01*
X133292571Y-66357142D01*
X132892571Y-66357142D01*
X132892571Y-66585714D01*
X133406857Y-65842857D02*
X132206857Y-65842857D01*
X133406857Y-65157142D01*
X132206857Y-65157142D01*
X133406857Y-64585714D02*
X132206857Y-64585714D01*
X132206857Y-64300000D01*
X132264000Y-64128571D01*
X132378285Y-64014285D01*
X132492571Y-63957142D01*
X132721142Y-63900000D01*
X132892571Y-63900000D01*
X133121142Y-63957142D01*
X133235428Y-64014285D01*
X133349714Y-64128571D01*
X133406857Y-64300000D01*
X133406857Y-64585714D01*
X118428571Y-80478857D02*
X119171428Y-80478857D01*
X118771428Y-80936000D01*
X118942857Y-80936000D01*
X119057142Y-80993142D01*
X119114285Y-81050285D01*
X119171428Y-81164571D01*
X119171428Y-81450285D01*
X119114285Y-81564571D01*
X119057142Y-81621714D01*
X118942857Y-81678857D01*
X118600000Y-81678857D01*
X118485714Y-81621714D01*
X118428571Y-81564571D01*
X119685714Y-81050285D02*
X120085714Y-81050285D01*
X120257142Y-81678857D02*
X119685714Y-81678857D01*
X119685714Y-80478857D01*
X120257142Y-80478857D01*
X120771428Y-81678857D02*
X120771428Y-80478857D01*
X121457142Y-81678857D01*
X121457142Y-80478857D01*
X119685714Y-85428571D02*
X119628571Y-85485714D01*
X119457142Y-85542857D01*
X119342857Y-85542857D01*
X119171428Y-85485714D01*
X119057142Y-85371428D01*
X119000000Y-85257142D01*
X118942857Y-85028571D01*
X118942857Y-84857142D01*
X119000000Y-84628571D01*
X119057142Y-84514285D01*
X119171428Y-84400000D01*
X119342857Y-84342857D01*
X119457142Y-84342857D01*
X119628571Y-84400000D01*
X119685714Y-84457142D01*
X120085714Y-84342857D02*
X120371428Y-85542857D01*
X120600000Y-84685714D01*
X120828571Y-85542857D01*
X121114285Y-84342857D01*
X118800000Y-88206857D02*
X119085714Y-89406857D01*
X119314285Y-88549714D01*
X119542857Y-89406857D01*
X119828571Y-88206857D01*
X120171428Y-88206857D02*
X120457142Y-89406857D01*
X120685714Y-88549714D01*
X120914285Y-89406857D01*
X121200000Y-88206857D01*
X118485714Y-66093142D02*
X118542857Y-66036000D01*
X118657142Y-65978857D01*
X118942857Y-65978857D01*
X119057142Y-66036000D01*
X119114285Y-66093142D01*
X119171428Y-66207428D01*
X119171428Y-66321714D01*
X119114285Y-66493142D01*
X118428571Y-67178857D01*
X119171428Y-67178857D01*
X119685714Y-66550285D02*
X120085714Y-66550285D01*
X120257142Y-67178857D02*
X119685714Y-67178857D01*
X119685714Y-65978857D01*
X120257142Y-65978857D01*
X120771428Y-67178857D02*
X120771428Y-65978857D01*
X121457142Y-67178857D01*
X121457142Y-65978857D01*
X119685714Y-70928571D02*
X119628571Y-70985714D01*
X119457142Y-71042857D01*
X119342857Y-71042857D01*
X119171428Y-70985714D01*
X119057142Y-70871428D01*
X119000000Y-70757142D01*
X118942857Y-70528571D01*
X118942857Y-70357142D01*
X119000000Y-70128571D01*
X119057142Y-70014285D01*
X119171428Y-69900000D01*
X119342857Y-69842857D01*
X119457142Y-69842857D01*
X119628571Y-69900000D01*
X119685714Y-69957142D01*
X120085714Y-69842857D02*
X120371428Y-71042857D01*
X120600000Y-70185714D01*
X120828571Y-71042857D01*
X121114285Y-69842857D01*
X118800000Y-73706857D02*
X119085714Y-74906857D01*
X119314285Y-74049714D01*
X119542857Y-74906857D01*
X119828571Y-73706857D01*
X120171428Y-73706857D02*
X120457142Y-74906857D01*
X120685714Y-74049714D01*
X120914285Y-74906857D01*
X121200000Y-73706857D01*
X119171428Y-52678857D02*
X118485714Y-52678857D01*
X118828571Y-52678857D02*
X118828571Y-51478857D01*
X118714285Y-51650285D01*
X118600000Y-51764571D01*
X118485714Y-51821714D01*
X119685714Y-52050285D02*
X120085714Y-52050285D01*
X120257142Y-52678857D02*
X119685714Y-52678857D01*
X119685714Y-51478857D01*
X120257142Y-51478857D01*
X120771428Y-52678857D02*
X120771428Y-51478857D01*
X121457142Y-52678857D01*
X121457142Y-51478857D01*
X119685714Y-56428571D02*
X119628571Y-56485714D01*
X119457142Y-56542857D01*
X119342857Y-56542857D01*
X119171428Y-56485714D01*
X119057142Y-56371428D01*
X119000000Y-56257142D01*
X118942857Y-56028571D01*
X118942857Y-55857142D01*
X119000000Y-55628571D01*
X119057142Y-55514285D01*
X119171428Y-55400000D01*
X119342857Y-55342857D01*
X119457142Y-55342857D01*
X119628571Y-55400000D01*
X119685714Y-55457142D01*
X120085714Y-55342857D02*
X120371428Y-56542857D01*
X120600000Y-55685714D01*
X120828571Y-56542857D01*
X121114285Y-55342857D01*
X118800000Y-59206857D02*
X119085714Y-60406857D01*
X119314285Y-59549714D01*
X119542857Y-60406857D01*
X119828571Y-59206857D01*
X120171428Y-59206857D02*
X120457142Y-60406857D01*
X120685714Y-59549714D01*
X120914285Y-60406857D01*
X121200000Y-59206857D01*
D11*
X121250000Y-100142857D02*
X121178571Y-100285714D01*
X121178571Y-100500000D01*
X121250000Y-100714285D01*
X121392857Y-100857142D01*
X121535714Y-100928571D01*
X121821428Y-101000000D01*
X122035714Y-101000000D01*
X122321428Y-100928571D01*
X122464285Y-100857142D01*
X122607142Y-100714285D01*
X122678571Y-100500000D01*
X122678571Y-100357142D01*
X122607142Y-100142857D01*
X122535714Y-100071428D01*
X122035714Y-100071428D01*
X122035714Y-100357142D01*
X122678571Y-99428571D02*
X121178571Y-99428571D01*
X122678571Y-98571428D01*
X121178571Y-98571428D01*
X122678571Y-97857142D02*
X121178571Y-97857142D01*
X121178571Y-97500000D01*
X121250000Y-97285714D01*
X121392857Y-97142857D01*
X121535714Y-97071428D01*
X121821428Y-97000000D01*
X122035714Y-97000000D01*
X122321428Y-97071428D01*
X122464285Y-97142857D01*
X122607142Y-97285714D01*
X122678571Y-97500000D01*
X122678571Y-97857142D01*
X104678571Y-100357142D02*
X104678571Y-101214285D01*
X104678571Y-100785714D02*
X103178571Y-100785714D01*
X103392857Y-100928571D01*
X103535714Y-101071428D01*
X103607142Y-101214285D01*
X103321428Y-99785714D02*
X103250000Y-99714285D01*
X103178571Y-99571428D01*
X103178571Y-99214285D01*
X103250000Y-99071428D01*
X103321428Y-99000000D01*
X103464285Y-98928571D01*
X103607142Y-98928571D01*
X103821428Y-99000000D01*
X104678571Y-99857142D01*
X104678571Y-98928571D01*
X103678571Y-98428571D02*
X104678571Y-98071428D01*
X103678571Y-97714285D01*
D12*
%TO.C,H3*%
X127238095Y-42452380D02*
X127238095Y-41452380D01*
X127238095Y-41928571D02*
X127809523Y-41928571D01*
X127809523Y-42452380D02*
X127809523Y-41452380D01*
X128190476Y-41452380D02*
X128809523Y-41452380D01*
X128476190Y-41833333D01*
X128619047Y-41833333D01*
X128714285Y-41880952D01*
X128761904Y-41928571D01*
X128809523Y-42023809D01*
X128809523Y-42261904D01*
X128761904Y-42357142D01*
X128714285Y-42404761D01*
X128619047Y-42452380D01*
X128333333Y-42452380D01*
X128238095Y-42404761D01*
X128190476Y-42357142D01*
%TO.C,H2*%
X119238095Y-104252380D02*
X119238095Y-103252380D01*
X119238095Y-103728571D02*
X119809523Y-103728571D01*
X119809523Y-104252380D02*
X119809523Y-103252380D01*
X120238095Y-103347619D02*
X120285714Y-103300000D01*
X120380952Y-103252380D01*
X120619047Y-103252380D01*
X120714285Y-103300000D01*
X120761904Y-103347619D01*
X120809523Y-103442857D01*
X120809523Y-103538095D01*
X120761904Y-103680952D01*
X120190476Y-104252380D01*
X120809523Y-104252380D01*
%TO.C,H1*%
X110238095Y-42452380D02*
X110238095Y-41452380D01*
X110238095Y-41928571D02*
X110809523Y-41928571D01*
X110809523Y-42452380D02*
X110809523Y-41452380D01*
X111809523Y-42452380D02*
X111238095Y-42452380D01*
X111523809Y-42452380D02*
X111523809Y-41452380D01*
X111428571Y-41595238D01*
X111333333Y-41690476D01*
X111238095Y-41738095D01*
%TO.C,J6*%
X106666666Y-64952380D02*
X106666666Y-65666666D01*
X106619047Y-65809523D01*
X106523809Y-65904761D01*
X106380952Y-65952380D01*
X106285714Y-65952380D01*
X107571428Y-64952380D02*
X107380952Y-64952380D01*
X107285714Y-65000000D01*
X107238095Y-65047619D01*
X107142857Y-65190476D01*
X107095238Y-65380952D01*
X107095238Y-65761904D01*
X107142857Y-65857142D01*
X107190476Y-65904761D01*
X107285714Y-65952380D01*
X107476190Y-65952380D01*
X107571428Y-65904761D01*
X107619047Y-65857142D01*
X107666666Y-65761904D01*
X107666666Y-65523809D01*
X107619047Y-65428571D01*
X107571428Y-65380952D01*
X107476190Y-65333333D01*
X107285714Y-65333333D01*
X107190476Y-65380952D01*
X107142857Y-65428571D01*
X107095238Y-65523809D01*
%TO.C,C1*%
X124357142Y-68666666D02*
X124404761Y-68714285D01*
X124452380Y-68857142D01*
X124452380Y-68952380D01*
X124404761Y-69095238D01*
X124309523Y-69190476D01*
X124214285Y-69238095D01*
X124023809Y-69285714D01*
X123880952Y-69285714D01*
X123690476Y-69238095D01*
X123595238Y-69190476D01*
X123500000Y-69095238D01*
X123452380Y-68952380D01*
X123452380Y-68857142D01*
X123500000Y-68714285D01*
X123547619Y-68666666D01*
X124452380Y-67714285D02*
X124452380Y-68285714D01*
X124452380Y-68000000D02*
X123452380Y-68000000D01*
X123595238Y-68095238D01*
X123690476Y-68190476D01*
X123738095Y-68285714D01*
%TO.C,J5*%
X106666666Y-50452380D02*
X106666666Y-51166666D01*
X106619047Y-51309523D01*
X106523809Y-51404761D01*
X106380952Y-51452380D01*
X106285714Y-51452380D01*
X107619047Y-50452380D02*
X107142857Y-50452380D01*
X107095238Y-50928571D01*
X107142857Y-50880952D01*
X107238095Y-50833333D01*
X107476190Y-50833333D01*
X107571428Y-50880952D01*
X107619047Y-50928571D01*
X107666666Y-51023809D01*
X107666666Y-51261904D01*
X107619047Y-51357142D01*
X107571428Y-51404761D01*
X107476190Y-51452380D01*
X107238095Y-51452380D01*
X107142857Y-51404761D01*
X107095238Y-51357142D01*
%TO.C,J4*%
X118166666Y-49452380D02*
X118166666Y-50166666D01*
X118119047Y-50309523D01*
X118023809Y-50404761D01*
X117880952Y-50452380D01*
X117785714Y-50452380D01*
X119071428Y-49785714D02*
X119071428Y-50452380D01*
X118833333Y-49404761D02*
X118595238Y-50119047D01*
X119214285Y-50119047D01*
%TO.C,U2*%
X133031904Y-92437619D02*
X133031904Y-91628095D01*
X132984285Y-91532857D01*
X132936666Y-91485238D01*
X132841428Y-91437619D01*
X132650952Y-91437619D01*
X132555714Y-91485238D01*
X132508095Y-91532857D01*
X132460476Y-91628095D01*
X132460476Y-92437619D01*
X132031904Y-92342380D02*
X131984285Y-92390000D01*
X131889047Y-92437619D01*
X131650952Y-92437619D01*
X131555714Y-92390000D01*
X131508095Y-92342380D01*
X131460476Y-92247142D01*
X131460476Y-92151904D01*
X131508095Y-92009047D01*
X132079523Y-91437619D01*
X131460476Y-91437619D01*
%TO.C,C4*%
X123833333Y-81357142D02*
X123785714Y-81404761D01*
X123642857Y-81452380D01*
X123547619Y-81452380D01*
X123404761Y-81404761D01*
X123309523Y-81309523D01*
X123261904Y-81214285D01*
X123214285Y-81023809D01*
X123214285Y-80880952D01*
X123261904Y-80690476D01*
X123309523Y-80595238D01*
X123404761Y-80500000D01*
X123547619Y-80452380D01*
X123642857Y-80452380D01*
X123785714Y-80500000D01*
X123833333Y-80547619D01*
X124690476Y-80785714D02*
X124690476Y-81452380D01*
X124452380Y-80404761D02*
X124214285Y-81119047D01*
X124833333Y-81119047D01*
%TO.C,J3*%
X121452380Y-104333333D02*
X122166666Y-104333333D01*
X122309523Y-104380952D01*
X122404761Y-104476190D01*
X122452380Y-104619047D01*
X122452380Y-104714285D01*
X121452380Y-103952380D02*
X121452380Y-103333333D01*
X121833333Y-103666666D01*
X121833333Y-103523809D01*
X121880952Y-103428571D01*
X121928571Y-103380952D01*
X122023809Y-103333333D01*
X122261904Y-103333333D01*
X122357142Y-103380952D01*
X122404761Y-103428571D01*
X122452380Y-103523809D01*
X122452380Y-103809523D01*
X122404761Y-103904761D01*
X122357142Y-103952380D01*
%TO.C,C2*%
X133833333Y-81357142D02*
X133785714Y-81404761D01*
X133642857Y-81452380D01*
X133547619Y-81452380D01*
X133404761Y-81404761D01*
X133309523Y-81309523D01*
X133261904Y-81214285D01*
X133214285Y-81023809D01*
X133214285Y-80880952D01*
X133261904Y-80690476D01*
X133309523Y-80595238D01*
X133404761Y-80500000D01*
X133547619Y-80452380D01*
X133642857Y-80452380D01*
X133785714Y-80500000D01*
X133833333Y-80547619D01*
X134214285Y-80547619D02*
X134261904Y-80500000D01*
X134357142Y-80452380D01*
X134595238Y-80452380D01*
X134690476Y-80500000D01*
X134738095Y-80547619D01*
X134785714Y-80642857D01*
X134785714Y-80738095D01*
X134738095Y-80880952D01*
X134166666Y-81452380D01*
X134785714Y-81452380D01*
%TO.C,J1*%
X123547619Y-49166666D02*
X122833333Y-49166666D01*
X122690476Y-49119047D01*
X122595238Y-49023809D01*
X122547619Y-48880952D01*
X122547619Y-48785714D01*
X122547619Y-50166666D02*
X122547619Y-49595238D01*
X122547619Y-49880952D02*
X123547619Y-49880952D01*
X123404761Y-49785714D01*
X123309523Y-49690476D01*
X123261904Y-49595238D01*
%TO.C,J2*%
X103452380Y-104333333D02*
X104166666Y-104333333D01*
X104309523Y-104380952D01*
X104404761Y-104476190D01*
X104452380Y-104619047D01*
X104452380Y-104714285D01*
X103547619Y-103904761D02*
X103500000Y-103857142D01*
X103452380Y-103761904D01*
X103452380Y-103523809D01*
X103500000Y-103428571D01*
X103547619Y-103380952D01*
X103642857Y-103333333D01*
X103738095Y-103333333D01*
X103880952Y-103380952D01*
X104452380Y-103952380D01*
X104452380Y-103333333D01*
%TO.C,U1*%
X135437619Y-68682095D02*
X134628095Y-68682095D01*
X134532857Y-68729714D01*
X134485238Y-68777333D01*
X134437619Y-68872571D01*
X134437619Y-69063047D01*
X134485238Y-69158285D01*
X134532857Y-69205904D01*
X134628095Y-69253523D01*
X135437619Y-69253523D01*
X134437619Y-70253523D02*
X134437619Y-69682095D01*
X134437619Y-69967809D02*
X135437619Y-69967809D01*
X135294761Y-69872571D01*
X135199523Y-69777333D01*
X135151904Y-69682095D01*
%TO.C,C3*%
X124357142Y-78666666D02*
X124404761Y-78714285D01*
X124452380Y-78857142D01*
X124452380Y-78952380D01*
X124404761Y-79095238D01*
X124309523Y-79190476D01*
X124214285Y-79238095D01*
X124023809Y-79285714D01*
X123880952Y-79285714D01*
X123690476Y-79238095D01*
X123595238Y-79190476D01*
X123500000Y-79095238D01*
X123452380Y-78952380D01*
X123452380Y-78857142D01*
X123500000Y-78714285D01*
X123547619Y-78666666D01*
X123452380Y-78333333D02*
X123452380Y-77714285D01*
X123833333Y-78047619D01*
X123833333Y-77904761D01*
X123880952Y-77809523D01*
X123928571Y-77761904D01*
X124023809Y-77714285D01*
X124261904Y-77714285D01*
X124357142Y-77761904D01*
X124404761Y-77809523D01*
X124452380Y-77904761D01*
X124452380Y-78190476D01*
X124404761Y-78285714D01*
X124357142Y-78333333D01*
%TO.C,J6*%
X105000000Y-79000000D02*
X117250000Y-79000000D01*
X117250000Y-79000000D02*
X117250000Y-91000000D01*
X117250000Y-91000000D02*
X105000000Y-91000000D01*
X105000000Y-91000000D02*
X105000000Y-79000000D01*
D13*
%TO.C,C1*%
X125021000Y-71238748D02*
X125021000Y-71761252D01*
X123551000Y-71238748D02*
X123551000Y-71761252D01*
D12*
%TO.C,J5*%
X105000000Y-64500000D02*
X117250000Y-64500000D01*
X117250000Y-64500000D02*
X117250000Y-76500000D01*
X117250000Y-76500000D02*
X105000000Y-76500000D01*
X105000000Y-76500000D02*
X105000000Y-64500000D01*
%TO.C,J4*%
X105000000Y-50000000D02*
X117250000Y-50000000D01*
X117250000Y-50000000D02*
X117250000Y-62000000D01*
X117250000Y-62000000D02*
X105000000Y-62000000D01*
X105000000Y-62000000D02*
X105000000Y-50000000D01*
%TO.C,U2*%
X134514000Y-91000000D02*
X122914000Y-91000000D01*
X122914000Y-91000000D02*
X122914000Y-83000000D01*
X122914000Y-83000000D02*
X134514000Y-83000000D01*
X134514000Y-83000000D02*
X134514000Y-91000000D01*
D13*
%TO.C,C4*%
X126452748Y-80265000D02*
X126975252Y-80265000D01*
X126452748Y-81735000D02*
X126975252Y-81735000D01*
D12*
%TO.C,J3*%
X123000000Y-105500000D02*
X135000000Y-105500000D01*
X135000000Y-105500000D02*
X135000000Y-93250000D01*
X135000000Y-93250000D02*
X123000000Y-93250000D01*
X123000000Y-93250000D02*
X123000000Y-105500000D01*
D13*
%TO.C,C2*%
X130975252Y-81735000D02*
X130452748Y-81735000D01*
X130975252Y-80265000D02*
X130452748Y-80265000D01*
D12*
%TO.C,J1*%
X135000000Y-50500000D02*
X123000000Y-50500000D01*
X123000000Y-50500000D02*
X123000000Y-62750000D01*
X123000000Y-62750000D02*
X135000000Y-62750000D01*
X135000000Y-62750000D02*
X135000000Y-50500000D01*
%TO.C,J2*%
X105000000Y-105500000D02*
X117000000Y-105500000D01*
X117000000Y-105500000D02*
X117000000Y-93250000D01*
X117000000Y-93250000D02*
X105000000Y-93250000D01*
X105000000Y-93250000D02*
X105000000Y-105500000D01*
%TO.C,U1*%
X134000000Y-67200000D02*
X126000000Y-67200000D01*
X126000000Y-67200000D02*
X126000000Y-78800000D01*
X126000000Y-78800000D02*
X134000000Y-78800000D01*
X134000000Y-78800000D02*
X134000000Y-67200000D01*
D13*
%TO.C,C3*%
X123551000Y-75761252D02*
X123551000Y-75238748D01*
X125021000Y-75761252D02*
X125021000Y-75238748D01*
%TD*%
M02*
