%TF.GenerationSoftware,KiCad,Pcbnew,(6.0.4)*%
%TF.CreationDate,2022-11-04T10:04:38-04:00*%
%TF.ProjectId,controller board,636f6e74-726f-46c6-9c65-7220626f6172,rev?*%
%TF.SameCoordinates,Original*%
%TF.FileFunction,Paste,Top*%
%TF.FilePolarity,Positive*%
%FSLAX46Y46*%
G04 Gerber Fmt 4.6, Leading zero omitted, Abs format (unit mm)*
G04 Created by KiCad (PCBNEW (6.0.4)) date 2022-11-04 10:04:38*
%MOMM*%
%LPD*%
G01*
G04 APERTURE LIST*
G04 Aperture macros list*
%AMRoundRect*
0 Rectangle with rounded corners*
0 $1 Rounding radius*
0 $2 $3 $4 $5 $6 $7 $8 $9 X,Y pos of 4 corners*
0 Add a 4 corners polygon primitive as box body*
4,1,4,$2,$3,$4,$5,$6,$7,$8,$9,$2,$3,0*
0 Add four circle primitives for the rounded corners*
1,1,$1+$1,$2,$3*
1,1,$1+$1,$4,$5*
1,1,$1+$1,$6,$7*
1,1,$1+$1,$8,$9*
0 Add four rect primitives between the rounded corners*
20,1,$1+$1,$2,$3,$4,$5,0*
20,1,$1+$1,$4,$5,$6,$7,0*
20,1,$1+$1,$6,$7,$8,$9,0*
20,1,$1+$1,$8,$9,$2,$3,0*%
G04 Aperture macros list end*
%ADD10RoundRect,0.100000X-1.650000X-0.900000X1.650000X-0.900000X1.650000X0.900000X-1.650000X0.900000X0*%
%ADD11RoundRect,0.100000X-2.900000X-0.900000X2.900000X-0.900000X2.900000X0.900000X-2.900000X0.900000X0*%
%ADD12RoundRect,0.250000X-0.475000X0.337500X-0.475000X-0.337500X0.475000X-0.337500X0.475000X0.337500X0*%
%ADD13RoundRect,0.250000X-0.337500X-0.475000X0.337500X-0.475000X0.337500X0.475000X-0.337500X0.475000X0*%
%ADD14RoundRect,0.100000X0.900000X-1.650000X0.900000X1.650000X-0.900000X1.650000X-0.900000X-1.650000X0*%
%ADD15RoundRect,0.100000X0.900000X-2.900000X0.900000X2.900000X-0.900000X2.900000X-0.900000X-2.900000X0*%
%ADD16RoundRect,0.250000X0.337500X0.475000X-0.337500X0.475000X-0.337500X-0.475000X0.337500X-0.475000X0*%
%ADD17RoundRect,0.100000X-0.900000X2.900000X-0.900000X-2.900000X0.900000X-2.900000X0.900000X2.900000X0*%
%ADD18RoundRect,0.100000X-0.900000X1.650000X-0.900000X-1.650000X0.900000X-1.650000X0.900000X1.650000X0*%
%ADD19RoundRect,0.250000X0.475000X-0.337500X0.475000X0.337500X-0.475000X0.337500X-0.475000X-0.337500X0*%
G04 APERTURE END LIST*
D10*
%TO.C,J6*%
X116250000Y-81000000D03*
D11*
X107000000Y-81000000D03*
D10*
X116250000Y-85000000D03*
D11*
X107000000Y-85000000D03*
D10*
X116250000Y-89000000D03*
D11*
X107000000Y-89000000D03*
%TD*%
D12*
%TO.C,C1*%
X124286000Y-70462500D03*
X124286000Y-72537500D03*
%TD*%
D10*
%TO.C,J5*%
X116250000Y-66500000D03*
D11*
X107000000Y-66500000D03*
D10*
X116250000Y-70500000D03*
D11*
X107000000Y-70500000D03*
D10*
X116250000Y-74500000D03*
D11*
X107000000Y-74500000D03*
%TD*%
D10*
%TO.C,J4*%
X116250000Y-52000000D03*
D11*
X107000000Y-52000000D03*
X107000000Y-56000000D03*
D10*
X116250000Y-56000000D03*
D11*
X107000000Y-60000000D03*
D10*
X116250000Y-60000000D03*
%TD*%
D13*
%TO.C,C4*%
X125676500Y-81000000D03*
X127751500Y-81000000D03*
%TD*%
D14*
%TO.C,J3*%
X125000000Y-94250000D03*
D15*
X125000000Y-103500000D03*
D14*
X129000000Y-94250000D03*
D15*
X129000000Y-103500000D03*
X133000000Y-103500000D03*
D14*
X133000000Y-94250000D03*
%TD*%
D16*
%TO.C,C2*%
X131751500Y-81000000D03*
X129676500Y-81000000D03*
%TD*%
D17*
%TO.C,J1*%
X133000000Y-52500000D03*
D18*
X133000000Y-61750000D03*
X129000000Y-61750000D03*
D17*
X129000000Y-52500000D03*
D18*
X125000000Y-61750000D03*
D17*
X125000000Y-52500000D03*
%TD*%
D15*
%TO.C,J2*%
X107000000Y-103500000D03*
D14*
X107000000Y-94250000D03*
X111000000Y-94250000D03*
D15*
X111000000Y-103500000D03*
X115000000Y-103500000D03*
D14*
X115000000Y-94250000D03*
%TD*%
D19*
%TO.C,C3*%
X124286000Y-76537500D03*
X124286000Y-74462500D03*
%TD*%
M02*
