M48
; DRILL file {KiCad (6.0.4)} date Fri Nov  4 10:04:42 2022
; FORMAT={-:-/ absolute / inch / decimal}
; #@! TF.CreationDate,2022-11-04T10:04:42-04:00
; #@! TF.GenerationSoftware,Kicad,Pcbnew,(6.0.4)
; #@! TF.FileFunction,Plated,1,4,PTH
FMAT,2
INCH
; #@! TA.AperFunction,Plated,PTH,ViaDrill
T1C0.0157
; #@! TA.AperFunction,Plated,PTH,ComponentDrill
T2C0.0400
%
G90
G05
T1
X4.2126Y-1.9685
X4.252Y-2.5197
X4.311Y-3.0709
X4.3898Y-1.9685
X4.685Y-2.2047
X4.685Y-2.3622
X4.7244Y-2.0472
X4.7244Y-2.6378
X4.7244Y-2.7953
X4.7244Y-2.9528
X4.7244Y-3.189
X4.7244Y-3.3465
X4.7244Y-3.878
X4.7244Y-3.937
X4.7244Y-3.9961
X4.7244Y-4.0551
X4.7835Y-3.8189
X4.7835Y-3.878
X4.7835Y-3.937
X4.7835Y-3.9961
X4.7835Y-4.0551
X4.8418Y-3.9363
X4.8418Y-4.055
X4.8425Y-3.8189
X4.8425Y-3.878
X4.8425Y-3.9961
X4.8425Y-4.1142
X4.9213Y-3.0709
X4.9803Y-3.5827
X5.0394Y-3.5827
X5.0984Y-3.5827
X5.1575Y-3.5827
X5.2165Y-2.5394
X5.2165Y-2.5984
X5.2165Y-2.6575
X5.2165Y-3.5827
X5.2756Y-2.5394
X5.2756Y-2.5984
X5.2756Y-2.6575
X5.2756Y-2.7165
X5.2756Y-3.5827
T2
X4.9675Y-3.3577
X5.0506Y-2.774
X5.0506Y-2.874
X5.0506Y-2.974
X5.0675Y-3.3577
X5.1675Y-3.3577
T0
M30
