%TF.GenerationSoftware,KiCad,Pcbnew,(6.0.4)*%
%TF.CreationDate,2022-11-04T10:04:38-04:00*%
%TF.ProjectId,controller board,636f6e74-726f-46c6-9c65-7220626f6172,rev?*%
%TF.SameCoordinates,Original*%
%TF.FileFunction,Legend,Bot*%
%TF.FilePolarity,Positive*%
%FSLAX46Y46*%
G04 Gerber Fmt 4.6, Leading zero omitted, Abs format (unit mm)*
G04 Created by KiCad (PCBNEW (6.0.4)) date 2022-11-04 10:04:38*
%MOMM*%
%LPD*%
G01*
G04 APERTURE LIST*
%ADD10C,0.150000*%
%ADD11C,0.120000*%
G04 APERTURE END LIST*
D10*
%TO.C,J7*%
X112333333Y-82592380D02*
X112333333Y-83306666D01*
X112380952Y-83449523D01*
X112476190Y-83544761D01*
X112619047Y-83592380D01*
X112714285Y-83592380D01*
X111952380Y-82592380D02*
X111285714Y-82592380D01*
X111714285Y-83592380D01*
%TO.C,U3*%
X120740904Y-44545880D02*
X120740904Y-45355404D01*
X120693285Y-45450642D01*
X120645666Y-45498261D01*
X120550428Y-45545880D01*
X120359952Y-45545880D01*
X120264714Y-45498261D01*
X120217095Y-45450642D01*
X120169476Y-45355404D01*
X120169476Y-44545880D01*
X119788523Y-44545880D02*
X119169476Y-44545880D01*
X119502809Y-44926833D01*
X119359952Y-44926833D01*
X119264714Y-44974452D01*
X119217095Y-45022071D01*
X119169476Y-45117309D01*
X119169476Y-45355404D01*
X119217095Y-45450642D01*
X119264714Y-45498261D01*
X119359952Y-45545880D01*
X119645666Y-45545880D01*
X119740904Y-45498261D01*
X119788523Y-45450642D01*
D11*
%TO.C,J7*%
X110670000Y-80050000D02*
X110670000Y-76490000D01*
X110670000Y-82140000D02*
X110670000Y-81570000D01*
X113330000Y-72430000D02*
X113330000Y-71860000D01*
X113330000Y-82140000D02*
X113330000Y-79030000D01*
X110670000Y-74970000D02*
X110670000Y-71860000D01*
X110670000Y-82140000D02*
X113330000Y-82140000D01*
X113330000Y-77510000D02*
X113330000Y-73950000D01*
X110670000Y-81570000D02*
X109150000Y-81570000D01*
X110670000Y-71860000D02*
X113330000Y-71860000D01*
D10*
%TO.C,U3*%
X128869000Y-48522500D02*
X111089000Y-48522500D01*
X111089000Y-48522500D02*
X111089000Y-69477500D01*
X111089000Y-69477500D02*
X128869000Y-69477500D01*
X128869000Y-69477500D02*
X128869000Y-48522500D01*
%TD*%
M02*
