%TF.GenerationSoftware,KiCad,Pcbnew,(6.0.4)*%
%TF.CreationDate,2022-11-04T10:04:38-04:00*%
%TF.ProjectId,controller board,636f6e74-726f-46c6-9c65-7220626f6172,rev?*%
%TF.SameCoordinates,Original*%
%TF.FileFunction,Copper,L2,Inr*%
%TF.FilePolarity,Positive*%
%FSLAX46Y46*%
G04 Gerber Fmt 4.6, Leading zero omitted, Abs format (unit mm)*
G04 Created by KiCad (PCBNEW (6.0.4)) date 2022-11-04 10:04:38*
%MOMM*%
%LPD*%
G01*
G04 APERTURE LIST*
%TA.AperFunction,ComponentPad*%
%ADD10C,1.778000*%
%TD*%
%TA.AperFunction,ViaPad*%
%ADD11C,0.800000*%
%TD*%
G04 APERTURE END LIST*
D10*
%TO.N,+24V*%
%TO.C,U2*%
X131254000Y-85286000D03*
%TO.N,GND*%
X128714000Y-85286000D03*
%TO.N,+12V*%
X126174000Y-85286000D03*
%TD*%
%TO.N,+24V*%
%TO.C,U1*%
X128286000Y-70460000D03*
%TO.N,GND*%
X128286000Y-73000000D03*
%TO.N,+3V3*%
X128286000Y-75540000D03*
%TD*%
D11*
%TO.N,GND*%
X129500000Y-91000000D03*
X134000000Y-64500000D03*
X109500000Y-78000000D03*
X121500000Y-101500000D03*
X120000000Y-100000000D03*
X123000000Y-98500000D03*
X111500000Y-50000000D03*
X134000000Y-69000000D03*
X122981048Y-99981808D03*
X123000000Y-104500000D03*
X134000000Y-91000000D03*
X134000000Y-66000000D03*
X123000000Y-101500000D03*
X126500000Y-91000000D03*
X120000000Y-101500000D03*
X132500000Y-66000000D03*
X131000000Y-91000000D03*
X134000000Y-67500000D03*
X132500000Y-64500000D03*
X122981048Y-102996739D03*
X120000000Y-98500000D03*
X132500000Y-91000000D03*
X132500000Y-67500000D03*
X121500000Y-97000000D03*
X121500000Y-98500000D03*
X121500000Y-103000000D03*
X128000000Y-91000000D03*
X121500000Y-100000000D03*
X120000000Y-103000000D03*
X123000000Y-97000000D03*
%TO.N,+3V3*%
X120000000Y-52000000D03*
%TO.N,/CH1 EN*%
X107000000Y-50000000D03*
%TO.N,/CH1 CW*%
X119000000Y-56000000D03*
%TO.N,/CH1 WW*%
X108000000Y-64000000D03*
X119000000Y-60000000D03*
%TO.N,/CH2 EN*%
X120000000Y-67000000D03*
%TO.N,/CH2 CW*%
X120000000Y-71000000D03*
%TO.N,/CH2 WW*%
X120000000Y-75000000D03*
%TO.N,/CH3 EN*%
X120000000Y-81000000D03*
%TO.N,/CH3 CW*%
X120000000Y-85000000D03*
%TO.N,/CH3 WW*%
X125000000Y-78000000D03*
%TD*%
%TA.AperFunction,Conductor*%
%TO.N,GND*%
G36*
X106511083Y-49020002D02*
G01*
X106557576Y-49073658D01*
X106567680Y-49143932D01*
X106538186Y-49208512D01*
X106517025Y-49227934D01*
X106388747Y-49321134D01*
X106260960Y-49463056D01*
X106165473Y-49628444D01*
X106106458Y-49810072D01*
X106086496Y-50000000D01*
X106106458Y-50189928D01*
X106165473Y-50371556D01*
X106260960Y-50536944D01*
X106388747Y-50678866D01*
X106543248Y-50791118D01*
X106549276Y-50793802D01*
X106549278Y-50793803D01*
X106711681Y-50866109D01*
X106717712Y-50868794D01*
X106811112Y-50888647D01*
X106898056Y-50907128D01*
X106898061Y-50907128D01*
X106904513Y-50908500D01*
X107095487Y-50908500D01*
X107101939Y-50907128D01*
X107101944Y-50907128D01*
X107188887Y-50888647D01*
X107282288Y-50868794D01*
X107288319Y-50866109D01*
X107450722Y-50793803D01*
X107450724Y-50793802D01*
X107456752Y-50791118D01*
X107611253Y-50678866D01*
X107739040Y-50536944D01*
X107834527Y-50371556D01*
X107893542Y-50189928D01*
X107913504Y-50000000D01*
X107893542Y-49810072D01*
X107834527Y-49628444D01*
X107739040Y-49463056D01*
X107611253Y-49321134D01*
X107482976Y-49227935D01*
X107439623Y-49171714D01*
X107433548Y-49100978D01*
X107466679Y-49038186D01*
X107528499Y-49003274D01*
X107557038Y-49000000D01*
X134874000Y-49000000D01*
X134942121Y-49020002D01*
X134988614Y-49073658D01*
X135000000Y-49126000D01*
X135000000Y-108374000D01*
X134979998Y-108442121D01*
X134926342Y-108488614D01*
X134874000Y-108500000D01*
X122203822Y-108500000D01*
X122135701Y-108479998D01*
X122089208Y-108426342D01*
X122079079Y-108356247D01*
X122107146Y-108159036D01*
X122107146Y-108159034D01*
X122107751Y-108154784D01*
X122107845Y-108136951D01*
X122109235Y-107871583D01*
X122109235Y-107871576D01*
X122109257Y-107867297D01*
X122071732Y-107582266D01*
X121995871Y-107304964D01*
X121883077Y-107040524D01*
X121735439Y-106793839D01*
X121555687Y-106569472D01*
X121347149Y-106371577D01*
X121113683Y-106203814D01*
X121091843Y-106192250D01*
X121068654Y-106179972D01*
X120859608Y-106069288D01*
X120589627Y-105970489D01*
X120308736Y-105909245D01*
X120277685Y-105906801D01*
X120085718Y-105891693D01*
X120085709Y-105891693D01*
X120083261Y-105891500D01*
X119927729Y-105891500D01*
X119925593Y-105891646D01*
X119925582Y-105891646D01*
X119717452Y-105905835D01*
X119717446Y-105905836D01*
X119713175Y-105906127D01*
X119708980Y-105906996D01*
X119708978Y-105906996D01*
X119572416Y-105935277D01*
X119431658Y-105964426D01*
X119160657Y-106060393D01*
X118905188Y-106192250D01*
X118901687Y-106194711D01*
X118901683Y-106194713D01*
X118891594Y-106201804D01*
X118669977Y-106357559D01*
X118459378Y-106553260D01*
X118277287Y-106775732D01*
X118127073Y-107020858D01*
X118011517Y-107284102D01*
X117932756Y-107560594D01*
X117892249Y-107845216D01*
X117892227Y-107849505D01*
X117892226Y-107849512D01*
X117890765Y-108128417D01*
X117890743Y-108132703D01*
X117891302Y-108136947D01*
X117891302Y-108136951D01*
X117920345Y-108357554D01*
X117909406Y-108427703D01*
X117862277Y-108480801D01*
X117795423Y-108500000D01*
X104126000Y-108500000D01*
X104057879Y-108479998D01*
X104011386Y-108426342D01*
X104000000Y-108374000D01*
X104000000Y-85000000D01*
X119086496Y-85000000D01*
X119106458Y-85189928D01*
X119165473Y-85371556D01*
X119260960Y-85536944D01*
X119265378Y-85541851D01*
X119265379Y-85541852D01*
X119363123Y-85650408D01*
X119388747Y-85678866D01*
X119543248Y-85791118D01*
X119549276Y-85793802D01*
X119549278Y-85793803D01*
X119711681Y-85866109D01*
X119717712Y-85868794D01*
X119811113Y-85888647D01*
X119898056Y-85907128D01*
X119898061Y-85907128D01*
X119904513Y-85908500D01*
X120095487Y-85908500D01*
X120101939Y-85907128D01*
X120101944Y-85907128D01*
X120188887Y-85888647D01*
X120282288Y-85868794D01*
X120288319Y-85866109D01*
X120450722Y-85793803D01*
X120450724Y-85793802D01*
X120456752Y-85791118D01*
X120611253Y-85678866D01*
X120636877Y-85650408D01*
X120734621Y-85541852D01*
X120734622Y-85541851D01*
X120739040Y-85536944D01*
X120834527Y-85371556D01*
X120873458Y-85251739D01*
X124772129Y-85251739D01*
X124785357Y-85481161D01*
X124786492Y-85486198D01*
X124786493Y-85486204D01*
X124797928Y-85536944D01*
X124835878Y-85705342D01*
X124922336Y-85918261D01*
X125042408Y-86114200D01*
X125192869Y-86287898D01*
X125369679Y-86434689D01*
X125568090Y-86550631D01*
X125572910Y-86552471D01*
X125572915Y-86552474D01*
X125678073Y-86592629D01*
X125782774Y-86632610D01*
X125787842Y-86633641D01*
X125787845Y-86633642D01*
X125898534Y-86656162D01*
X126007963Y-86678426D01*
X126013136Y-86678616D01*
X126013139Y-86678616D01*
X126232448Y-86686657D01*
X126232452Y-86686657D01*
X126237612Y-86686846D01*
X126242732Y-86686190D01*
X126242734Y-86686190D01*
X126460425Y-86658304D01*
X126460428Y-86658303D01*
X126465552Y-86657647D01*
X126472139Y-86655671D01*
X126680710Y-86593096D01*
X126685663Y-86591610D01*
X126892033Y-86490511D01*
X126896845Y-86487079D01*
X126963737Y-86439365D01*
X127925464Y-86439365D01*
X127930745Y-86446420D01*
X128103846Y-86547571D01*
X128113132Y-86552021D01*
X128318083Y-86630283D01*
X128327981Y-86633159D01*
X128542962Y-86676897D01*
X128553190Y-86678116D01*
X128772425Y-86686156D01*
X128782711Y-86685689D01*
X129000320Y-86657813D01*
X129010398Y-86655671D01*
X129220527Y-86592629D01*
X129230125Y-86588868D01*
X129427138Y-86492352D01*
X129435983Y-86487079D01*
X129491209Y-86447686D01*
X129499609Y-86436987D01*
X129492622Y-86423833D01*
X128726811Y-85658021D01*
X128712868Y-85650408D01*
X128711034Y-85650539D01*
X128704420Y-85654790D01*
X127932221Y-86426990D01*
X127925464Y-86439365D01*
X126963737Y-86439365D01*
X127074916Y-86360062D01*
X127079119Y-86357064D01*
X127241898Y-86194852D01*
X127332003Y-86069458D01*
X127342005Y-86055538D01*
X127398000Y-86011890D01*
X127468703Y-86005444D01*
X127531668Y-86038247D01*
X127551761Y-86063229D01*
X127552100Y-86063782D01*
X127562555Y-86073241D01*
X127571331Y-86069458D01*
X128341979Y-85298811D01*
X128348356Y-85287132D01*
X129078408Y-85287132D01*
X129078539Y-85288966D01*
X129082790Y-85295580D01*
X129852425Y-86065214D01*
X129864431Y-86071770D01*
X129876169Y-86062803D01*
X129881403Y-86055518D01*
X129937397Y-86011870D01*
X130008101Y-86005423D01*
X130071066Y-86038225D01*
X130091160Y-86063208D01*
X130122408Y-86114200D01*
X130272869Y-86287898D01*
X130449679Y-86434689D01*
X130648090Y-86550631D01*
X130652910Y-86552471D01*
X130652915Y-86552474D01*
X130758073Y-86592629D01*
X130862774Y-86632610D01*
X130867842Y-86633641D01*
X130867845Y-86633642D01*
X130978534Y-86656162D01*
X131087963Y-86678426D01*
X131093136Y-86678616D01*
X131093139Y-86678616D01*
X131312448Y-86686657D01*
X131312452Y-86686657D01*
X131317612Y-86686846D01*
X131322732Y-86686190D01*
X131322734Y-86686190D01*
X131540425Y-86658304D01*
X131540428Y-86658303D01*
X131545552Y-86657647D01*
X131552139Y-86655671D01*
X131760710Y-86593096D01*
X131765663Y-86591610D01*
X131972033Y-86490511D01*
X131976845Y-86487079D01*
X132154916Y-86360062D01*
X132159119Y-86357064D01*
X132321898Y-86194852D01*
X132412003Y-86069458D01*
X132452979Y-86012433D01*
X132455997Y-86008233D01*
X132557816Y-85802217D01*
X132573739Y-85749808D01*
X132623117Y-85587291D01*
X132623118Y-85587285D01*
X132624621Y-85582339D01*
X132640544Y-85461389D01*
X132654179Y-85357823D01*
X132654179Y-85357819D01*
X132654616Y-85354502D01*
X132656290Y-85286000D01*
X132650058Y-85210194D01*
X132637884Y-85062121D01*
X132637883Y-85062115D01*
X132637460Y-85056970D01*
X132581477Y-84834090D01*
X132489843Y-84623347D01*
X132487037Y-84619009D01*
X132367830Y-84434743D01*
X132367828Y-84434740D01*
X132365020Y-84430400D01*
X132265596Y-84321134D01*
X132213837Y-84264252D01*
X132213835Y-84264251D01*
X132210359Y-84260430D01*
X132206308Y-84257231D01*
X132206304Y-84257227D01*
X132046733Y-84131206D01*
X132030015Y-84118003D01*
X131828831Y-84006943D01*
X131711611Y-83965433D01*
X131617084Y-83931959D01*
X131617080Y-83931958D01*
X131612209Y-83930233D01*
X131607116Y-83929326D01*
X131607113Y-83929325D01*
X131391056Y-83890839D01*
X131391050Y-83890838D01*
X131385967Y-83889933D01*
X131312784Y-83889039D01*
X131161351Y-83887189D01*
X131161349Y-83887189D01*
X131156181Y-83887126D01*
X131004610Y-83910319D01*
X130934131Y-83921104D01*
X130934128Y-83921105D01*
X130929022Y-83921886D01*
X130906263Y-83929325D01*
X130715504Y-83991675D01*
X130715502Y-83991676D01*
X130710591Y-83993281D01*
X130506753Y-84099392D01*
X130502620Y-84102495D01*
X130502617Y-84102497D01*
X130327118Y-84234265D01*
X130322983Y-84237370D01*
X130164216Y-84403510D01*
X130161302Y-84407782D01*
X130161301Y-84407783D01*
X130123596Y-84463056D01*
X130092261Y-84508993D01*
X130087759Y-84515592D01*
X130032848Y-84560595D01*
X129962323Y-84568766D01*
X129898576Y-84537512D01*
X129877879Y-84513029D01*
X129875268Y-84508993D01*
X129864582Y-84499791D01*
X129855017Y-84504194D01*
X129086021Y-85273189D01*
X129078408Y-85287132D01*
X128348356Y-85287132D01*
X128349592Y-85284868D01*
X128349461Y-85283034D01*
X128345210Y-85276420D01*
X127575778Y-84506989D01*
X127564246Y-84500692D01*
X127551965Y-84510314D01*
X127548360Y-84515599D01*
X127493448Y-84560602D01*
X127422923Y-84568773D01*
X127359176Y-84537519D01*
X127338479Y-84513035D01*
X127287830Y-84434743D01*
X127287828Y-84434740D01*
X127285020Y-84430400D01*
X127185596Y-84321134D01*
X127133837Y-84264252D01*
X127133835Y-84264251D01*
X127130359Y-84260430D01*
X127126308Y-84257231D01*
X127126304Y-84257227D01*
X126970993Y-84134570D01*
X127927365Y-84134570D01*
X127934108Y-84146897D01*
X128701189Y-84913979D01*
X128715132Y-84921592D01*
X128716966Y-84921461D01*
X128723580Y-84917210D01*
X129495162Y-84145627D01*
X129502179Y-84132776D01*
X129494405Y-84122107D01*
X129493796Y-84121625D01*
X129485210Y-84115921D01*
X129293151Y-84009900D01*
X129283752Y-84005675D01*
X129076950Y-83932443D01*
X129066993Y-83929813D01*
X128851008Y-83891339D01*
X128840757Y-83890370D01*
X128621386Y-83887690D01*
X128611102Y-83888410D01*
X128394251Y-83921592D01*
X128384224Y-83923981D01*
X128175704Y-83992135D01*
X128166195Y-83996132D01*
X127971603Y-84097431D01*
X127962890Y-84102918D01*
X127935819Y-84123244D01*
X127927365Y-84134570D01*
X126970993Y-84134570D01*
X126966733Y-84131206D01*
X126950015Y-84118003D01*
X126748831Y-84006943D01*
X126631611Y-83965433D01*
X126537084Y-83931959D01*
X126537080Y-83931958D01*
X126532209Y-83930233D01*
X126527116Y-83929326D01*
X126527113Y-83929325D01*
X126311056Y-83890839D01*
X126311050Y-83890838D01*
X126305967Y-83889933D01*
X126232784Y-83889039D01*
X126081351Y-83887189D01*
X126081349Y-83887189D01*
X126076181Y-83887126D01*
X125924610Y-83910319D01*
X125854131Y-83921104D01*
X125854128Y-83921105D01*
X125849022Y-83921886D01*
X125826263Y-83929325D01*
X125635504Y-83991675D01*
X125635502Y-83991676D01*
X125630591Y-83993281D01*
X125426753Y-84099392D01*
X125422620Y-84102495D01*
X125422617Y-84102497D01*
X125247118Y-84234265D01*
X125242983Y-84237370D01*
X125084216Y-84403510D01*
X125081302Y-84407782D01*
X125081301Y-84407783D01*
X125043596Y-84463056D01*
X124954716Y-84593350D01*
X124857961Y-84801792D01*
X124796548Y-85023237D01*
X124772129Y-85251739D01*
X120873458Y-85251739D01*
X120893542Y-85189928D01*
X120913504Y-85000000D01*
X120904463Y-84913979D01*
X120894232Y-84816635D01*
X120894232Y-84816633D01*
X120893542Y-84810072D01*
X120834527Y-84628444D01*
X120814266Y-84593350D01*
X120742341Y-84468774D01*
X120739040Y-84463056D01*
X120709637Y-84430400D01*
X120615675Y-84326045D01*
X120615674Y-84326044D01*
X120611253Y-84321134D01*
X120456752Y-84208882D01*
X120450724Y-84206198D01*
X120450722Y-84206197D01*
X120288319Y-84133891D01*
X120288318Y-84133891D01*
X120282288Y-84131206D01*
X120188888Y-84111353D01*
X120101944Y-84092872D01*
X120101939Y-84092872D01*
X120095487Y-84091500D01*
X119904513Y-84091500D01*
X119898061Y-84092872D01*
X119898056Y-84092872D01*
X119811112Y-84111353D01*
X119717712Y-84131206D01*
X119711682Y-84133891D01*
X119711681Y-84133891D01*
X119549278Y-84206197D01*
X119549276Y-84206198D01*
X119543248Y-84208882D01*
X119388747Y-84321134D01*
X119384326Y-84326044D01*
X119384325Y-84326045D01*
X119290364Y-84430400D01*
X119260960Y-84463056D01*
X119257659Y-84468774D01*
X119185735Y-84593350D01*
X119165473Y-84628444D01*
X119106458Y-84810072D01*
X119105768Y-84816633D01*
X119105768Y-84816635D01*
X119095537Y-84913979D01*
X119086496Y-85000000D01*
X104000000Y-85000000D01*
X104000000Y-81000000D01*
X119086496Y-81000000D01*
X119106458Y-81189928D01*
X119165473Y-81371556D01*
X119260960Y-81536944D01*
X119388747Y-81678866D01*
X119543248Y-81791118D01*
X119549276Y-81793802D01*
X119549278Y-81793803D01*
X119711681Y-81866109D01*
X119717712Y-81868794D01*
X119811113Y-81888647D01*
X119898056Y-81907128D01*
X119898061Y-81907128D01*
X119904513Y-81908500D01*
X120095487Y-81908500D01*
X120101939Y-81907128D01*
X120101944Y-81907128D01*
X120188887Y-81888647D01*
X120282288Y-81868794D01*
X120288319Y-81866109D01*
X120450722Y-81793803D01*
X120450724Y-81793802D01*
X120456752Y-81791118D01*
X120611253Y-81678866D01*
X120739040Y-81536944D01*
X120834527Y-81371556D01*
X120893542Y-81189928D01*
X120913504Y-81000000D01*
X120893542Y-80810072D01*
X120834527Y-80628444D01*
X120739040Y-80463056D01*
X120611253Y-80321134D01*
X120456752Y-80208882D01*
X120450724Y-80206198D01*
X120450722Y-80206197D01*
X120288319Y-80133891D01*
X120288318Y-80133891D01*
X120282288Y-80131206D01*
X120188888Y-80111353D01*
X120101944Y-80092872D01*
X120101939Y-80092872D01*
X120095487Y-80091500D01*
X119904513Y-80091500D01*
X119898061Y-80092872D01*
X119898056Y-80092872D01*
X119811112Y-80111353D01*
X119717712Y-80131206D01*
X119711682Y-80133891D01*
X119711681Y-80133891D01*
X119549278Y-80206197D01*
X119549276Y-80206198D01*
X119543248Y-80208882D01*
X119388747Y-80321134D01*
X119260960Y-80463056D01*
X119165473Y-80628444D01*
X119106458Y-80810072D01*
X119086496Y-81000000D01*
X104000000Y-81000000D01*
X104000000Y-78000000D01*
X124086496Y-78000000D01*
X124106458Y-78189928D01*
X124165473Y-78371556D01*
X124260960Y-78536944D01*
X124388747Y-78678866D01*
X124543248Y-78791118D01*
X124549276Y-78793802D01*
X124549278Y-78793803D01*
X124711681Y-78866109D01*
X124717712Y-78868794D01*
X124811112Y-78888647D01*
X124898056Y-78907128D01*
X124898061Y-78907128D01*
X124904513Y-78908500D01*
X125095487Y-78908500D01*
X125101939Y-78907128D01*
X125101944Y-78907128D01*
X125188888Y-78888647D01*
X125282288Y-78868794D01*
X125288319Y-78866109D01*
X125450722Y-78793803D01*
X125450724Y-78793802D01*
X125456752Y-78791118D01*
X125611253Y-78678866D01*
X125739040Y-78536944D01*
X125834527Y-78371556D01*
X125893542Y-78189928D01*
X125913504Y-78000000D01*
X125893542Y-77810072D01*
X125834527Y-77628444D01*
X125739040Y-77463056D01*
X125611253Y-77321134D01*
X125456752Y-77208882D01*
X125450724Y-77206198D01*
X125450722Y-77206197D01*
X125288319Y-77133891D01*
X125288318Y-77133891D01*
X125282288Y-77131206D01*
X125188888Y-77111353D01*
X125101944Y-77092872D01*
X125101939Y-77092872D01*
X125095487Y-77091500D01*
X124904513Y-77091500D01*
X124898061Y-77092872D01*
X124898056Y-77092872D01*
X124811112Y-77111353D01*
X124717712Y-77131206D01*
X124711682Y-77133891D01*
X124711681Y-77133891D01*
X124549278Y-77206197D01*
X124549276Y-77206198D01*
X124543248Y-77208882D01*
X124388747Y-77321134D01*
X124260960Y-77463056D01*
X124165473Y-77628444D01*
X124106458Y-77810072D01*
X124086496Y-78000000D01*
X104000000Y-78000000D01*
X104000000Y-75000000D01*
X119086496Y-75000000D01*
X119087186Y-75006565D01*
X119096282Y-75093104D01*
X119106458Y-75189928D01*
X119165473Y-75371556D01*
X119260960Y-75536944D01*
X119388747Y-75678866D01*
X119543248Y-75791118D01*
X119549276Y-75793802D01*
X119549278Y-75793803D01*
X119711681Y-75866109D01*
X119717712Y-75868794D01*
X119811112Y-75888647D01*
X119898056Y-75907128D01*
X119898061Y-75907128D01*
X119904513Y-75908500D01*
X120095487Y-75908500D01*
X120101939Y-75907128D01*
X120101944Y-75907128D01*
X120188888Y-75888647D01*
X120282288Y-75868794D01*
X120288319Y-75866109D01*
X120450722Y-75793803D01*
X120450724Y-75793802D01*
X120456752Y-75791118D01*
X120611253Y-75678866D01*
X120739040Y-75536944D01*
X120757056Y-75505739D01*
X126884129Y-75505739D01*
X126884426Y-75510892D01*
X126884426Y-75510895D01*
X126885911Y-75536646D01*
X126897357Y-75735161D01*
X126898492Y-75740198D01*
X126898493Y-75740204D01*
X126909967Y-75791118D01*
X126947878Y-75959342D01*
X127034336Y-76172261D01*
X127154408Y-76368200D01*
X127304869Y-76541898D01*
X127481679Y-76688689D01*
X127680090Y-76804631D01*
X127684910Y-76806471D01*
X127684915Y-76806474D01*
X127791296Y-76847096D01*
X127894774Y-76886610D01*
X127899842Y-76887641D01*
X127899845Y-76887642D01*
X128010534Y-76910162D01*
X128119963Y-76932426D01*
X128125136Y-76932616D01*
X128125139Y-76932616D01*
X128344448Y-76940657D01*
X128344452Y-76940657D01*
X128349612Y-76940846D01*
X128354732Y-76940190D01*
X128354734Y-76940190D01*
X128572425Y-76912304D01*
X128572428Y-76912303D01*
X128577552Y-76911647D01*
X128797663Y-76845610D01*
X129004033Y-76744511D01*
X129191119Y-76611064D01*
X129353898Y-76448852D01*
X129487997Y-76262233D01*
X129589816Y-76056217D01*
X129605739Y-76003808D01*
X129655117Y-75841291D01*
X129655118Y-75841285D01*
X129656621Y-75836339D01*
X129676841Y-75682749D01*
X129686179Y-75611823D01*
X129686179Y-75611819D01*
X129686616Y-75608502D01*
X129688290Y-75540000D01*
X129674441Y-75371556D01*
X129669884Y-75316121D01*
X129669883Y-75316115D01*
X129669460Y-75310970D01*
X129613477Y-75088090D01*
X129521843Y-74877347D01*
X129519037Y-74873009D01*
X129399830Y-74688743D01*
X129399828Y-74688740D01*
X129397020Y-74684400D01*
X129340897Y-74622721D01*
X129245837Y-74518252D01*
X129245835Y-74518251D01*
X129242359Y-74514430D01*
X129238308Y-74511231D01*
X129238304Y-74511227D01*
X129066072Y-74375207D01*
X129062015Y-74372003D01*
X129061224Y-74371567D01*
X129016351Y-74318161D01*
X129007316Y-74247742D01*
X129037788Y-74183617D01*
X129058579Y-74164988D01*
X129063210Y-74161685D01*
X129071609Y-74150987D01*
X129064622Y-74137833D01*
X128298811Y-73372021D01*
X128284868Y-73364408D01*
X128283034Y-73364539D01*
X128276420Y-73368790D01*
X127504221Y-74140990D01*
X127497464Y-74153365D01*
X127502745Y-74160420D01*
X127503784Y-74161027D01*
X127552508Y-74212665D01*
X127565579Y-74282448D01*
X127538848Y-74348220D01*
X127515867Y-74370575D01*
X127392694Y-74463056D01*
X127354983Y-74491370D01*
X127196216Y-74657510D01*
X127066716Y-74847350D01*
X127018338Y-74951571D01*
X126995859Y-75000000D01*
X126969961Y-75055792D01*
X126908548Y-75277237D01*
X126884129Y-75505739D01*
X120757056Y-75505739D01*
X120834527Y-75371556D01*
X120893542Y-75189928D01*
X120903719Y-75093104D01*
X120912814Y-75006565D01*
X120913504Y-75000000D01*
X120900157Y-74873009D01*
X120894232Y-74816635D01*
X120894232Y-74816633D01*
X120893542Y-74810072D01*
X120834527Y-74628444D01*
X120739040Y-74463056D01*
X120659941Y-74375207D01*
X120615675Y-74326045D01*
X120615674Y-74326044D01*
X120611253Y-74321134D01*
X120456752Y-74208882D01*
X120450724Y-74206198D01*
X120450722Y-74206197D01*
X120288319Y-74133891D01*
X120288318Y-74133891D01*
X120282288Y-74131206D01*
X120188888Y-74111353D01*
X120101944Y-74092872D01*
X120101939Y-74092872D01*
X120095487Y-74091500D01*
X119904513Y-74091500D01*
X119898061Y-74092872D01*
X119898056Y-74092872D01*
X119811112Y-74111353D01*
X119717712Y-74131206D01*
X119711682Y-74133891D01*
X119711681Y-74133891D01*
X119549278Y-74206197D01*
X119549276Y-74206198D01*
X119543248Y-74208882D01*
X119388747Y-74321134D01*
X119384326Y-74326044D01*
X119384325Y-74326045D01*
X119340060Y-74375207D01*
X119260960Y-74463056D01*
X119165473Y-74628444D01*
X119106458Y-74810072D01*
X119105768Y-74816633D01*
X119105768Y-74816635D01*
X119099843Y-74873009D01*
X119086496Y-75000000D01*
X104000000Y-75000000D01*
X104000000Y-72970907D01*
X126884927Y-72970907D01*
X126897557Y-73189932D01*
X126898990Y-73200134D01*
X126947219Y-73414143D01*
X126950302Y-73423983D01*
X127032837Y-73627240D01*
X127037490Y-73636451D01*
X127124098Y-73777780D01*
X127134555Y-73787241D01*
X127143331Y-73783458D01*
X127913979Y-73012811D01*
X127920356Y-73001132D01*
X128650408Y-73001132D01*
X128650539Y-73002966D01*
X128654790Y-73009580D01*
X129424425Y-73779214D01*
X129436431Y-73785770D01*
X129448170Y-73776802D01*
X129484549Y-73726174D01*
X129489860Y-73717335D01*
X129587056Y-73520675D01*
X129590854Y-73511082D01*
X129654628Y-73301177D01*
X129656805Y-73291107D01*
X129685677Y-73071799D01*
X129686196Y-73065124D01*
X129687706Y-73003364D01*
X129687512Y-72996646D01*
X129669389Y-72776203D01*
X129667706Y-72766041D01*
X129614261Y-72553263D01*
X129610943Y-72543516D01*
X129523462Y-72342323D01*
X129518595Y-72333246D01*
X129447268Y-72222993D01*
X129436582Y-72213791D01*
X129427017Y-72218194D01*
X128658021Y-72987189D01*
X128650408Y-73001132D01*
X127920356Y-73001132D01*
X127921592Y-72998868D01*
X127921461Y-72997034D01*
X127917210Y-72990420D01*
X127147778Y-72220989D01*
X127136246Y-72214692D01*
X127123964Y-72224315D01*
X127070064Y-72303329D01*
X127064976Y-72312285D01*
X126972611Y-72511270D01*
X126969048Y-72520957D01*
X126910424Y-72732347D01*
X126908493Y-72742468D01*
X126885178Y-72960619D01*
X126884927Y-72970907D01*
X104000000Y-72970907D01*
X104000000Y-71000000D01*
X119086496Y-71000000D01*
X119087186Y-71006565D01*
X119105162Y-71177594D01*
X119106458Y-71189928D01*
X119165473Y-71371556D01*
X119260960Y-71536944D01*
X119265378Y-71541851D01*
X119265379Y-71541852D01*
X119325559Y-71608689D01*
X119388747Y-71678866D01*
X119487843Y-71750864D01*
X119526257Y-71778773D01*
X119543248Y-71791118D01*
X119549276Y-71793802D01*
X119549278Y-71793803D01*
X119697122Y-71859627D01*
X119717712Y-71868794D01*
X119811112Y-71888647D01*
X119898056Y-71907128D01*
X119898061Y-71907128D01*
X119904513Y-71908500D01*
X120095487Y-71908500D01*
X120101939Y-71907128D01*
X120101944Y-71907128D01*
X120188888Y-71888647D01*
X120282288Y-71868794D01*
X120302878Y-71859627D01*
X120450722Y-71793803D01*
X120450724Y-71793802D01*
X120456752Y-71791118D01*
X120473744Y-71778773D01*
X120512157Y-71750864D01*
X120611253Y-71678866D01*
X120674441Y-71608689D01*
X120734621Y-71541852D01*
X120734622Y-71541851D01*
X120739040Y-71536944D01*
X120834527Y-71371556D01*
X120893542Y-71189928D01*
X120894839Y-71177594D01*
X120912814Y-71006565D01*
X120913504Y-71000000D01*
X120910484Y-70971263D01*
X120894232Y-70816635D01*
X120894232Y-70816633D01*
X120893542Y-70810072D01*
X120834527Y-70628444D01*
X120739040Y-70463056D01*
X120733269Y-70456646D01*
X120705440Y-70425739D01*
X126884129Y-70425739D01*
X126884426Y-70430892D01*
X126884426Y-70430895D01*
X126886298Y-70463365D01*
X126897357Y-70655161D01*
X126898492Y-70660198D01*
X126898493Y-70660204D01*
X126932267Y-70810072D01*
X126947878Y-70879342D01*
X127034336Y-71092261D01*
X127154408Y-71288200D01*
X127304869Y-71461898D01*
X127481679Y-71608689D01*
X127486140Y-71611296D01*
X127486146Y-71611300D01*
X127497374Y-71617861D01*
X127503818Y-71621626D01*
X127552542Y-71673262D01*
X127565614Y-71743045D01*
X127538884Y-71808818D01*
X127515903Y-71831174D01*
X127507819Y-71837244D01*
X127499365Y-71848570D01*
X127506108Y-71860897D01*
X128273189Y-72627979D01*
X128287132Y-72635592D01*
X128288966Y-72635461D01*
X128295580Y-72631210D01*
X129067162Y-71859627D01*
X129074179Y-71846776D01*
X129066405Y-71836107D01*
X129065792Y-71835623D01*
X129062037Y-71833128D01*
X129016363Y-71778773D01*
X129007327Y-71708354D01*
X129037796Y-71644228D01*
X129058589Y-71625598D01*
X129186908Y-71534069D01*
X129186918Y-71534060D01*
X129191119Y-71531064D01*
X129353898Y-71368852D01*
X129487997Y-71182233D01*
X129589816Y-70976217D01*
X129605739Y-70923808D01*
X129655117Y-70761291D01*
X129655118Y-70761285D01*
X129656621Y-70756339D01*
X129686616Y-70528502D01*
X129688290Y-70460000D01*
X129676554Y-70317251D01*
X129669884Y-70236121D01*
X129669883Y-70236115D01*
X129669460Y-70230970D01*
X129613477Y-70008090D01*
X129521843Y-69797347D01*
X129519037Y-69793009D01*
X129399830Y-69608743D01*
X129399828Y-69608740D01*
X129397020Y-69604400D01*
X129242359Y-69434430D01*
X129238308Y-69431231D01*
X129238304Y-69431227D01*
X129066073Y-69295208D01*
X129062015Y-69292003D01*
X128860831Y-69180943D01*
X128743611Y-69139433D01*
X128649084Y-69105959D01*
X128649080Y-69105958D01*
X128644209Y-69104233D01*
X128639116Y-69103326D01*
X128639113Y-69103325D01*
X128423056Y-69064839D01*
X128423050Y-69064838D01*
X128417967Y-69063933D01*
X128344784Y-69063039D01*
X128193351Y-69061189D01*
X128193349Y-69061189D01*
X128188181Y-69061126D01*
X128036610Y-69084319D01*
X127966131Y-69095104D01*
X127966128Y-69095105D01*
X127961022Y-69095886D01*
X127956110Y-69097491D01*
X127956112Y-69097491D01*
X127747504Y-69165675D01*
X127747502Y-69165676D01*
X127742591Y-69167281D01*
X127538753Y-69273392D01*
X127534620Y-69276495D01*
X127534617Y-69276497D01*
X127359118Y-69408265D01*
X127354983Y-69411370D01*
X127196216Y-69577510D01*
X127066716Y-69767350D01*
X126969961Y-69975792D01*
X126908548Y-70197237D01*
X126907999Y-70202371D01*
X126907999Y-70202373D01*
X126906889Y-70212763D01*
X126884129Y-70425739D01*
X120705440Y-70425739D01*
X120615675Y-70326045D01*
X120615674Y-70326044D01*
X120611253Y-70321134D01*
X120494243Y-70236121D01*
X120462094Y-70212763D01*
X120462093Y-70212762D01*
X120456752Y-70208882D01*
X120450724Y-70206198D01*
X120450722Y-70206197D01*
X120288319Y-70133891D01*
X120288318Y-70133891D01*
X120282288Y-70131206D01*
X120188888Y-70111353D01*
X120101944Y-70092872D01*
X120101939Y-70092872D01*
X120095487Y-70091500D01*
X119904513Y-70091500D01*
X119898061Y-70092872D01*
X119898056Y-70092872D01*
X119811112Y-70111353D01*
X119717712Y-70131206D01*
X119711682Y-70133891D01*
X119711681Y-70133891D01*
X119549278Y-70206197D01*
X119549276Y-70206198D01*
X119543248Y-70208882D01*
X119537907Y-70212762D01*
X119537906Y-70212763D01*
X119505757Y-70236121D01*
X119388747Y-70321134D01*
X119384326Y-70326044D01*
X119384325Y-70326045D01*
X119266732Y-70456646D01*
X119260960Y-70463056D01*
X119165473Y-70628444D01*
X119106458Y-70810072D01*
X119105768Y-70816633D01*
X119105768Y-70816635D01*
X119089516Y-70971263D01*
X119086496Y-71000000D01*
X104000000Y-71000000D01*
X104000000Y-67000000D01*
X119086496Y-67000000D01*
X119106458Y-67189928D01*
X119165473Y-67371556D01*
X119260960Y-67536944D01*
X119388747Y-67678866D01*
X119543248Y-67791118D01*
X119549276Y-67793802D01*
X119549278Y-67793803D01*
X119711681Y-67866109D01*
X119717712Y-67868794D01*
X119811112Y-67888647D01*
X119898056Y-67907128D01*
X119898061Y-67907128D01*
X119904513Y-67908500D01*
X120095487Y-67908500D01*
X120101939Y-67907128D01*
X120101944Y-67907128D01*
X120188888Y-67888647D01*
X120282288Y-67868794D01*
X120288319Y-67866109D01*
X120450722Y-67793803D01*
X120450724Y-67793802D01*
X120456752Y-67791118D01*
X120611253Y-67678866D01*
X120739040Y-67536944D01*
X120834527Y-67371556D01*
X120893542Y-67189928D01*
X120913504Y-67000000D01*
X120893542Y-66810072D01*
X120834527Y-66628444D01*
X120739040Y-66463056D01*
X120611253Y-66321134D01*
X120456752Y-66208882D01*
X120450724Y-66206198D01*
X120450722Y-66206197D01*
X120288319Y-66133891D01*
X120288318Y-66133891D01*
X120282288Y-66131206D01*
X120188888Y-66111353D01*
X120101944Y-66092872D01*
X120101939Y-66092872D01*
X120095487Y-66091500D01*
X119904513Y-66091500D01*
X119898061Y-66092872D01*
X119898056Y-66092872D01*
X119811112Y-66111353D01*
X119717712Y-66131206D01*
X119711682Y-66133891D01*
X119711681Y-66133891D01*
X119549278Y-66206197D01*
X119549276Y-66206198D01*
X119543248Y-66208882D01*
X119388747Y-66321134D01*
X119260960Y-66463056D01*
X119165473Y-66628444D01*
X119106458Y-66810072D01*
X119086496Y-67000000D01*
X104000000Y-67000000D01*
X104000000Y-64000000D01*
X107086496Y-64000000D01*
X107106458Y-64189928D01*
X107165473Y-64371556D01*
X107260960Y-64536944D01*
X107388747Y-64678866D01*
X107543248Y-64791118D01*
X107549276Y-64793802D01*
X107549278Y-64793803D01*
X107711681Y-64866109D01*
X107717712Y-64868794D01*
X107811113Y-64888647D01*
X107898056Y-64907128D01*
X107898061Y-64907128D01*
X107904513Y-64908500D01*
X108095487Y-64908500D01*
X108101939Y-64907128D01*
X108101944Y-64907128D01*
X108188887Y-64888647D01*
X108282288Y-64868794D01*
X108288319Y-64866109D01*
X108450722Y-64793803D01*
X108450724Y-64793802D01*
X108456752Y-64791118D01*
X108611253Y-64678866D01*
X108739040Y-64536944D01*
X108834527Y-64371556D01*
X108893542Y-64189928D01*
X108913504Y-64000000D01*
X108893542Y-63810072D01*
X108834527Y-63628444D01*
X108739040Y-63463056D01*
X108611253Y-63321134D01*
X108456752Y-63208882D01*
X108450724Y-63206198D01*
X108450722Y-63206197D01*
X108288319Y-63133891D01*
X108288318Y-63133891D01*
X108282288Y-63131206D01*
X108188888Y-63111353D01*
X108101944Y-63092872D01*
X108101939Y-63092872D01*
X108095487Y-63091500D01*
X107904513Y-63091500D01*
X107898061Y-63092872D01*
X107898056Y-63092872D01*
X107811112Y-63111353D01*
X107717712Y-63131206D01*
X107711682Y-63133891D01*
X107711681Y-63133891D01*
X107549278Y-63206197D01*
X107549276Y-63206198D01*
X107543248Y-63208882D01*
X107388747Y-63321134D01*
X107260960Y-63463056D01*
X107165473Y-63628444D01*
X107106458Y-63810072D01*
X107086496Y-64000000D01*
X104000000Y-64000000D01*
X104000000Y-60000000D01*
X118086496Y-60000000D01*
X118106458Y-60189928D01*
X118165473Y-60371556D01*
X118260960Y-60536944D01*
X118388747Y-60678866D01*
X118543248Y-60791118D01*
X118549276Y-60793802D01*
X118549278Y-60793803D01*
X118711681Y-60866109D01*
X118717712Y-60868794D01*
X118811113Y-60888647D01*
X118898056Y-60907128D01*
X118898061Y-60907128D01*
X118904513Y-60908500D01*
X119095487Y-60908500D01*
X119101939Y-60907128D01*
X119101944Y-60907128D01*
X119188887Y-60888647D01*
X119282288Y-60868794D01*
X119288319Y-60866109D01*
X119450722Y-60793803D01*
X119450724Y-60793802D01*
X119456752Y-60791118D01*
X119611253Y-60678866D01*
X119739040Y-60536944D01*
X119834527Y-60371556D01*
X119893542Y-60189928D01*
X119913504Y-60000000D01*
X119893542Y-59810072D01*
X119834527Y-59628444D01*
X119739040Y-59463056D01*
X119611253Y-59321134D01*
X119456752Y-59208882D01*
X119450724Y-59206198D01*
X119450722Y-59206197D01*
X119288319Y-59133891D01*
X119288318Y-59133891D01*
X119282288Y-59131206D01*
X119188888Y-59111353D01*
X119101944Y-59092872D01*
X119101939Y-59092872D01*
X119095487Y-59091500D01*
X118904513Y-59091500D01*
X118898061Y-59092872D01*
X118898056Y-59092872D01*
X118811112Y-59111353D01*
X118717712Y-59131206D01*
X118711682Y-59133891D01*
X118711681Y-59133891D01*
X118549278Y-59206197D01*
X118549276Y-59206198D01*
X118543248Y-59208882D01*
X118388747Y-59321134D01*
X118260960Y-59463056D01*
X118165473Y-59628444D01*
X118106458Y-59810072D01*
X118086496Y-60000000D01*
X104000000Y-60000000D01*
X104000000Y-56000000D01*
X118086496Y-56000000D01*
X118106458Y-56189928D01*
X118165473Y-56371556D01*
X118260960Y-56536944D01*
X118388747Y-56678866D01*
X118543248Y-56791118D01*
X118549276Y-56793802D01*
X118549278Y-56793803D01*
X118711681Y-56866109D01*
X118717712Y-56868794D01*
X118811112Y-56888647D01*
X118898056Y-56907128D01*
X118898061Y-56907128D01*
X118904513Y-56908500D01*
X119095487Y-56908500D01*
X119101939Y-56907128D01*
X119101944Y-56907128D01*
X119188888Y-56888647D01*
X119282288Y-56868794D01*
X119288319Y-56866109D01*
X119450722Y-56793803D01*
X119450724Y-56793802D01*
X119456752Y-56791118D01*
X119611253Y-56678866D01*
X119739040Y-56536944D01*
X119834527Y-56371556D01*
X119893542Y-56189928D01*
X119913504Y-56000000D01*
X119893542Y-55810072D01*
X119834527Y-55628444D01*
X119739040Y-55463056D01*
X119611253Y-55321134D01*
X119456752Y-55208882D01*
X119450724Y-55206198D01*
X119450722Y-55206197D01*
X119288319Y-55133891D01*
X119288318Y-55133891D01*
X119282288Y-55131206D01*
X119188888Y-55111353D01*
X119101944Y-55092872D01*
X119101939Y-55092872D01*
X119095487Y-55091500D01*
X118904513Y-55091500D01*
X118898061Y-55092872D01*
X118898056Y-55092872D01*
X118811112Y-55111353D01*
X118717712Y-55131206D01*
X118711682Y-55133891D01*
X118711681Y-55133891D01*
X118549278Y-55206197D01*
X118549276Y-55206198D01*
X118543248Y-55208882D01*
X118388747Y-55321134D01*
X118260960Y-55463056D01*
X118165473Y-55628444D01*
X118106458Y-55810072D01*
X118086496Y-56000000D01*
X104000000Y-56000000D01*
X104000000Y-52000000D01*
X119086496Y-52000000D01*
X119106458Y-52189928D01*
X119165473Y-52371556D01*
X119260960Y-52536944D01*
X119388747Y-52678866D01*
X119543248Y-52791118D01*
X119549276Y-52793802D01*
X119549278Y-52793803D01*
X119711681Y-52866109D01*
X119717712Y-52868794D01*
X119811112Y-52888647D01*
X119898056Y-52907128D01*
X119898061Y-52907128D01*
X119904513Y-52908500D01*
X120095487Y-52908500D01*
X120101939Y-52907128D01*
X120101944Y-52907128D01*
X120188888Y-52888647D01*
X120282288Y-52868794D01*
X120288319Y-52866109D01*
X120450722Y-52793803D01*
X120450724Y-52793802D01*
X120456752Y-52791118D01*
X120611253Y-52678866D01*
X120739040Y-52536944D01*
X120834527Y-52371556D01*
X120893542Y-52189928D01*
X120913504Y-52000000D01*
X120893542Y-51810072D01*
X120834527Y-51628444D01*
X120739040Y-51463056D01*
X120611253Y-51321134D01*
X120456752Y-51208882D01*
X120450724Y-51206198D01*
X120450722Y-51206197D01*
X120288319Y-51133891D01*
X120288318Y-51133891D01*
X120282288Y-51131206D01*
X120188887Y-51111353D01*
X120101944Y-51092872D01*
X120101939Y-51092872D01*
X120095487Y-51091500D01*
X119904513Y-51091500D01*
X119898061Y-51092872D01*
X119898056Y-51092872D01*
X119811113Y-51111353D01*
X119717712Y-51131206D01*
X119711682Y-51133891D01*
X119711681Y-51133891D01*
X119549278Y-51206197D01*
X119549276Y-51206198D01*
X119543248Y-51208882D01*
X119388747Y-51321134D01*
X119260960Y-51463056D01*
X119165473Y-51628444D01*
X119106458Y-51810072D01*
X119086496Y-52000000D01*
X104000000Y-52000000D01*
X104000000Y-49126000D01*
X104020002Y-49057879D01*
X104073658Y-49011386D01*
X104126000Y-49000000D01*
X106442962Y-49000000D01*
X106511083Y-49020002D01*
G37*
%TD.AperFunction*%
%TD*%
M02*
